<svg id="BackToTop" xmlns="http://www.w3.org/2000/svg" width="48" height="48" viewBox="0 0 48 48">
  <g id="Icon-Set">
    <path id="arrow-up-square" d="M561,1025a3.005,3.005,0,0,1-3,3H522a3.005,3.005,0,0,1-3-3V989a3,3,0,0,1,3-3h36a3,3,0,0,1,3,3v36Zm-3-42H522a6,6,0,0,0-6,6v36a6,6,0,0,0,6,6h36a6,6,0,0,0,6-6V989a6,6,0,0,0-6-6Zm-16.681,12.7a2.424,2.424,0,0,0-2.637,0l-8.484,8.484a1.5,1.5,0,0,0,2.121,2.121l6.181-6.182V1016a1.5,1.5,0,0,0,3,0v-15.879l6.181,6.182a1.5,1.5,0,0,0,2.121-2.121l-8.484-8.484Z" transform="translate(-516 -983)" fill="#f7ff00" fill-rule="evenodd"/>
  </g>
</svg>
