<?xml version="1.0" encoding="UTF-8"?><svg xmlns="http://www.w3.org/2000/svg" xmlns:xlink="http://www.w3.org/1999/xlink" viewBox="0 0 449.4 438.94"><defs><style>.cls-1{opacity:.7;}.cls-2,.cls-3,.cls-4,.cls-5,.cls-6,.cls-7,.cls-8{fill:#fff;}.cls-9,.cls-10,.cls-11,.cls-4,.cls-6,.cls-12,.cls-13,.cls-7,.cls-14,.cls-15,.cls-16,.cls-17{stroke-linecap:round;stroke-linejoin:round;}.cls-9,.cls-11,.cls-18,.cls-14,.cls-15{fill:none;}.cls-9,.cls-18{stroke:#515b60;}.cls-10,.cls-12,.cls-13,.cls-7,.cls-15,.cls-16,.cls-17{stroke:#263238;}.cls-10,.cls-19{fill:#757575;}.cls-20{fill:#5c5c5c;}.cls-11,.cls-4{stroke:#92e3a9;}.cls-3{opacity:.3;}.cls-21{opacity:.1;}.cls-21,.cls-16,.cls-22{fill:#263238;}.cls-23,.cls-8{opacity:.2;}.cls-5,.cls-24{opacity:.8;}.cls-6{stroke:#676f74;}.cls-25{fill:#515b60;}.cls-12{fill:#999;}.cls-13,.cls-26{fill:#92e3a9;}.cls-18{stroke-miterlimit:10;}.cls-27{fill:#e4f8e9;}.cls-28{clip-path:url(#clippath);}.cls-14{stroke:#3c464c;}.cls-17{fill:#bfbfbf;}</style><clipPath id="clippath"><path class="cls-4" d="M6.52,248.89l39.53-56.93,23.23-6.97,5.17-17.88c2.45-8.46,8.32-15.51,16.19-19.45h0l9.6-29.25,29.42-6.97,33.91-68.8,22.45-.77,20.9-10.06,18.58-7.74,20.13,23.23,18.58,44.13,27.25,19.25,27.87,55.74h0c23.98,8.8,44.38,25.25,58.07,46.82l25.82,40.68-258.07,13.92L6.52,248.89Z"/></clipPath></defs><g id="Background_Simple"><path class="cls-26" d="M449.4,211.7c0,.96-.01,1.92-.03,2.88,0,.41,0,.83-.02,1.24-.01,.67-.03,1.35-.05,2.01-.01,.4-.02,.81-.05,1.22-.03,1-.08,2-.14,3-.07,1.05-.13,2.11-.22,3.15-.04,.63-.1,1.26-.16,1.89-.04,.64-.11,1.28-.17,1.91-.1,1.03-.21,2.06-.34,3.08-.08,.72-.16,1.44-.26,2.16-.04,.38-.1,.75-.15,1.13-.02,.2-.04,.4-.09,.6-3.78,27.16-13.87,52.61-28.91,75.18-127.82,103.95-254.03,110.56-378.49,11.85C15.61,291.32,1.15,253,1.15,211.7,1.15,173.16,32.73,66.65,206.93,3.16c59.97-21.85,179.79,73.95,224.82,154.12,11.1,19.75,17.66,38.55,17.66,54.42Z"/><g class="cls-1"><path class="cls-2" d="M449.4,211.7c0,.96-.01,1.92-.03,2.88,0,.41,0,.83-.02,1.24-.01,.67-.03,1.35-.05,2.01-.01,.4-.02,.81-.05,1.22-.03,1-.08,2-.14,3-.07,1.05-.13,2.11-.22,3.15-.04,.63-.1,1.26-.16,1.89-.04,.64-.11,1.28-.17,1.91-.1,1.03-.21,2.06-.34,3.08-.08,.72-.16,1.44-.26,2.16-.04,.38-.1,.75-.15,1.13-.02,.2-.04,.4-.09,.6-3.78,27.16-13.87,52.61-28.91,75.18-127.82,103.95-254.03,110.56-378.49,11.85C15.61,291.32,1.15,253,1.15,211.7,1.15,173.16,32.73,66.65,206.93,3.16c59.97-21.85,179.79,73.95,224.82,154.12,11.1,19.75,17.66,38.55,17.66,54.42Z"/></g></g><g id="Clouds"><g><path class="cls-9" d="M300.58,148.36l62.85,2.23c10.02,.36,10.53-12.4-.53-15.65-.14-.04-.28-.08-.42-.12,10.23-9.67-22.35-31.06-37.03-1.2-1.82-8.25-19.48-4.63-19.2,5.39-5.47-6.31-13.83,4.08-5.67,9.36Z"/><path class="cls-9" d="M79.49,111.72l53.08-.89c8.46-.14,7.61-11.53-2.01-13.93-.12-.03-.24-.06-.37-.09,7.63-9.09-21.91-26.67-31.26,.62-2.36-7.27-16.85-3.24-15.6,5.68-5.24-5.38-11.22,4.27-3.83,8.6Z"/><g><g><path class="cls-25" d="M289.39,70.86s-.75-.16-1.88-.61c-1.13-.44-2.59-1.19-4.1-1.92-1.51-.72-2.95-1.1-4.01-1.2-1.07-.12-1.79-.03-1.9-.28-.1-.21,.53-.8,1.83-1.04,1.29-.25,3.14,0,4.88,.84,1.73,.84,2.94,2,3.8,2.82,.85,.83,1.37,1.4,1.37,1.4Z"/><path class="cls-25" d="M295.99,65.55s-.53,.21-1.36,.53c-.81,.33-1.83,.79-2.97,1.29-2.27,1-4.21,2.04-4.53,1.59-.15-.21,.15-.72,.8-1.35,.65-.63,1.67-1.39,2.98-1.96,1.31-.58,2.68-.64,3.6-.5,.47,.07,.84,.16,1.08,.26,.25,.09,.38,.14,.38,.14Z"/></g><g><path class="cls-25" d="M277.15,74.82s-.13-.08-.37-.23c-.23-.15-.58-.35-1-.58-.84-.46-2.01-.99-3.33-1.45-2.65-.95-5.01-.74-5.08-1.14-.03-.18,.54-.48,1.57-.63,1.02-.15,2.48-.07,3.98,.44,1.5,.52,2.65,1.45,3.31,2.22,.34,.39,.57,.72,.71,.97,.14,.24,.22,.38,.22,.38Z"/><path class="cls-25" d="M279.74,69.36s-.38,.23-.95,.55c-.56,.32-1.31,.73-2.11,1.19-1.6,.87-2.82,1.9-3.13,1.62-.14-.13,0-.55,.41-1.11,.4-.55,1.11-1.23,2.05-1.75,.94-.51,1.93-.65,2.62-.64,.69,.01,1.12,.13,1.12,.13Z"/></g><g><path class="cls-25" d="M274.96,66.24s-.9-.31-2.27-.89c-1.38-.57-3.21-1.39-5.23-2.06-2.01-.66-3.93-.83-5.3-.73-1.38,.08-2.26,.34-2.39,.1-.12-.2,.61-.94,2.15-1.4,1.53-.47,3.83-.5,6.12,.26,2.29,.76,4,2.07,5.14,3.04,1.14,.99,1.78,1.69,1.78,1.69Z"/><path class="cls-25" d="M281.03,58.52l-.51,.14c-.32,.08-.79,.22-1.34,.4-1.11,.35-2.54,.91-4.07,1.6-3.07,1.37-5.05,3.42-5.48,3.09-.19-.15,.06-.9,.84-1.87,.77-.97,2.12-2.11,3.86-2.92,1.75-.8,3.52-.94,4.75-.83,.62,.05,1.11,.15,1.44,.24,.33,.09,.51,.15,.51,.15Z"/></g></g></g></g><g id="Mountain"><g><path class="cls-2" d="M6.52,248.89l39.53-56.93,23.23-6.97,5.17-17.88c2.45-8.46,8.32-15.51,16.19-19.45h0l9.6-29.25,29.42-6.97,33.91-68.8,22.45-.77,20.9-10.06,18.58-7.74,20.13,23.23,18.58,44.13,27.25,19.25,27.87,55.74h0c23.98,8.8,44.38,25.25,58.07,46.82l25.82,40.68-258.07,13.92L6.52,248.89Z"/><g class="cls-28"><path class="cls-26" d="M152.13,98.97c-1.1,3.18-2.25,6.42-4.32,9.07-2.24,2.85-5.52,4.88-9.07,5.6,4.37,1.69,9.16,2.26,13.8,1.67-1.03-9.48,3.05-19.37,10.48-25.36-1.07-9.83,.96-19.98,5.74-28.63,1.25-2.26,2.71-4.51,2.96-7.08,.15-1.48-.27-3.72-1.54-4.69-2.79-2.13-2.08-.03-3.36,1.97-2.52,3.97-3.1,10.99-4.46,15.56-3.19,10.7-6.6,21.34-10.24,31.9Z"/><path class="cls-5" d="M152.13,98.97c-1.1,3.18-2.25,6.42-4.32,9.07-2.24,2.85-5.52,4.88-9.07,5.6,4.37,1.69,9.16,2.26,13.8,1.67-1.03-9.48,3.05-19.37,10.48-25.36-1.07-9.83,.96-19.98,5.74-28.63,1.25-2.26,2.71-4.51,2.96-7.08,.15-1.48-.27-3.72-1.54-4.69-2.79-2.13-2.08-.03-3.36,1.97-2.52,3.97-3.1,10.99-4.46,15.56-3.19,10.7-6.6,21.34-10.24,31.9Z"/><g><path class="cls-26" d="M94.83,180.85c.43-1.1,.14-2.43-.69-3.26,2.87,.62,6.05-.56,7.82-2.91-1.96-6.89-.49-14.67,3.86-20.36-.88,2.66-1.78,5.4-1.63,8.2,.15,2.8,1.57,5.72,4.15,6.82,6.54,2.78,14.22-7.34,20.1-3.36-2.34,2.02-4.68,4.04-7.01,6.06l18.93-3.53c.86-1.95,1.72-3.9,2.58-5.85,.92,2.18,1.85,4.36,2.77,6.53,1.32-6.87,5.85-13.06,12-16.4-5.71,5.63-4.27,16.74-11.24,20.71-2.94,1.68-6.54,1.47-9.92,1.7-10.23,.68-19.59,5.66-29.2,9.24-8.75,3.26-20.96,6.24-29.5,.86,2.43-.97,16.27-2.6,16.98-4.45Z"/><path class="cls-5" d="M94.83,180.85c.43-1.1,.14-2.43-.69-3.26,2.87,.62,6.05-.56,7.82-2.91-1.96-6.89-.49-14.67,3.86-20.36-.88,2.66-1.78,5.4-1.63,8.2,.15,2.8,1.57,5.72,4.15,6.82,6.54,2.78,14.22-7.34,20.1-3.36-2.34,2.02-4.68,4.04-7.01,6.06l18.93-3.53c.86-1.95,1.72-3.9,2.58-5.85,.92,2.18,1.85,4.36,2.77,6.53,1.32-6.87,5.85-13.06,12-16.4-5.71,5.63-4.27,16.74-11.24,20.71-2.94,1.68-6.54,1.47-9.92,1.7-10.23,.68-19.59,5.66-29.2,9.24-8.75,3.26-20.96,6.24-29.5,.86,2.43-.97,16.27-2.6,16.98-4.45Z"/></g><path class="cls-26" d="M56.34,251.93c6.83-10.18,18.3-18.93,20.47-31,1.14-6.35,2.28-12.69,3.42-19.04,0,0-8.13,25.13-11.93,28.46s-15.21,18.53-15.21,18.53l3.25,3.04Z"/><path class="cls-27" d="M253.18,148.75l-.13-.89c-.15-.3-.31-.6-.46-.89,.2,.59,.39,1.19,.59,1.78Z"/><path class="cls-26" d="M119.62,229.29c-.45-1.73-.9-3.46-1.35-5.18-2.1,5.45-4.21,10.9-6.31,16.35-1.19,3.09-2.4,6.27-2.42,9.58s2.4,6.82,5.33,8.36c-.74-5.56,.51-11.1,3.43-15.89,2.92-4.79,6.58-9.13,9.2-14.09,5.65-10.69,7.54-23.58,11.71-34.87-3.68,.11-7.96,12.76-9.65,16.09-3.32,6.55-6.63,13.1-9.95,19.66Z"/><g><path class="cls-26" d="M142.03,114.64c-4.12-.89-8.25-1.77-12.37-2.66l-29.42,6.43,24.62,15.94,11.88-1.9,10.93-6.65,14.73,4.28,3.33,3.33,22.81,1.43,28.99-6.65,28.51-1.43,11.41-12.36,19.01,.95,15-4.68-27.25-19.25-16.75,10.14s1.9,4.28-4.75,6.18c-6.65,1.9-13.31,3.33-13.31,3.33h-12.83l-10.46,1.9-24.71,4.75s-27.09-3.8-28.99-2.85c-1.9,.95-10.4-.23-10.4-.23Z"/><path class="cls-5" d="M142.03,114.64c-4.12-.89-8.25-1.77-12.37-2.66l-29.42,6.43,24.62,15.94,11.88-1.9,10.93-6.65,14.73,4.28,3.33,3.33,22.81,1.43,28.99-6.65,28.51-1.43,11.41-12.36,19.01,.95,15-4.68-27.25-19.25-16.75,10.14s1.9,4.28-4.75,6.18c-6.65,1.9-13.31,3.33-13.31,3.33h-12.83l-10.46,1.9-24.71,4.75s-27.09-3.8-28.99-2.85c-1.9,.95-10.4-.23-10.4-.23Z"/></g><path class="cls-26" d="M177.14,170.95c1.22-5.18,1.93-12.16,3.15-17.34-7.15,8.47-8.22,20.83-15.32,29.35-3.07,3.69-7.12,6.45-10.27,10.07-4.85,5.56-7.29,12.77-9.62,19.77-5.18,15.58-10.43,31.87-8.03,48.12,4.86-11.5,4.92-16.78,13.95-28.18,5.26-6.65,7.25-21.96,11.49-29.3,4.68-8.12,9.17-9.12,9.99-15.17,.71-5.2,1.86-10.32,3.81-15.19l.85-2.12Z"/><path class="cls-26" d="M248.17,139.73c4.32,9.65,9.76,17.91,14.98,26.46,4.7,7.7,18.31,10.05,22.72,17.92,11.02,19.63,17.81,26.23,24.55,40.62,3.34-.69,6.67-1.39,10.01-2.08-7.29-14.2-16.44-27.43-27.15-39.26,5.57,1.44,16.97,2.08,17.1,.97-10.31-2.73-13.93-5.44-22.99-11.05-12.86-7.96-30.36-20.14-38.91-32.62"/><path class="cls-26" d="M306.32,173.77c.34,.93,.67,1.86,1.01,2.78-4.79-.46-9.59-.92-14.38-1.38,6.71,3.07,13.64,6.3,18.44,11.9,2.3,2.69,4.25,6.01,7.55,7.27,1.71,.66,3.61,.66,5.37,1.16,5.74,1.62,8.75,7.74,11.08,13.23,3.36-1.81,6.72-3.61,10.08-5.42-2.99,.14-5.82-1.59-7.75-3.88-1.93-2.29-3.1-5.11-4.25-7.87-.59-1.43-1.2-2.99-.82-4.5,.38-1.5,2.24-2.69,3.52-1.82-.2-2.29-3-3.15-5.17-3.89-2.17-.75-4.52-3.17-3.09-4.97,1.27-1.59,3.8-.48,5.44,.72-6.33-4.22-20.05-5.98-27.06-3.33Z"/><path class="cls-5" d="M56.34,251.93c6.83-10.18,18.3-18.93,20.47-31,1.14-6.35,2.28-12.69,3.42-19.04,0,0-8.13,25.13-11.93,28.46s-15.21,18.53-15.21,18.53l3.25,3.04Z"/><path class="cls-5" d="M119.62,229.29c-.45-1.73-.9-3.46-1.35-5.18-2.1,5.45-4.21,10.9-6.31,16.35-1.19,3.09-2.4,6.27-2.42,9.58s2.4,6.82,5.33,8.36c-.74-5.56,.51-11.1,3.43-15.89,2.92-4.79,6.58-9.13,9.2-14.09,5.65-10.69,7.54-23.58,11.71-34.87-3.68,.11-7.96,12.76-9.65,16.09-3.32,6.55-6.63,13.1-9.95,19.66Z"/><g class="cls-24"><path class="cls-2" d="M177.14,170.95c1.22-5.18,1.93-12.16,3.15-17.34-7.15,8.47-8.22,20.83-15.32,29.35-3.07,3.69-7.12,6.45-10.27,10.07-4.85,5.56-7.29,12.77-9.62,19.77-5.18,15.58-10.43,31.87-8.03,48.12,4.86-11.5,4.92-16.78,13.95-28.18,5.26-6.65,7.25-21.96,11.49-29.3,4.68-8.12,9.17-9.12,9.99-15.17,.71-5.2,1.86-10.32,3.81-15.19l.85-2.12Z"/></g><path class="cls-5" d="M248.17,139.73c4.32,9.65,9.76,17.91,14.98,26.46,4.7,7.7,18.31,10.05,22.72,17.92,11.02,19.63,17.81,26.23,24.55,40.62,3.34-.69,6.67-1.39,10.01-2.08-7.29-14.2-16.44-27.43-27.15-39.26,5.57,1.44,16.97,2.08,17.1,.97-10.31-2.73-13.93-5.44-22.99-11.05-12.86-7.96-30.36-20.14-38.91-32.62"/><path class="cls-5" d="M306.32,173.77c.34,.93,.67,1.86,1.01,2.78-4.79-.46-9.59-.92-14.38-1.38,6.71,3.07,13.64,6.3,18.44,11.9,2.3,2.69,4.25,6.01,7.55,7.27,1.71,.66,3.61,.66,5.37,1.16,5.74,1.62,8.75,7.74,11.08,13.23,3.36-1.81,6.72-3.61,10.08-5.42-2.99,.14-5.82-1.59-7.75-3.88-1.93-2.29-3.1-5.11-4.25-7.87-.59-1.43-1.2-2.99-.82-4.5,.38-1.5,2.24-2.69,3.52-1.82-.2-2.29-3-3.15-5.17-3.89-2.17-.75-4.52-3.17-3.09-4.97,1.27-1.59,3.8-.48,5.44,.72-6.33-4.22-20.05-5.98-27.06-3.33Z"/><g><path class="cls-26" d="M121.96,189.62c-.72,1.05-1.44,2.09-2.16,3.14,3.25-1.79,7.03-2.6,10.73-2.28-.45,.76-.91,1.53-1.36,2.29,3.01-1.67,6.02-3.34,9.04-5.01,.14,1.15,.29,2.3,.43,3.45,4.23-4.44,8.45-8.88,12.68-13.33-16.23,2.22-33.14,5.42-48.5,11.24,2.19,.22,18.11,2,19.15,.49Z"/><path class="cls-5" d="M121.96,189.62c-.72,1.05-1.44,2.09-2.16,3.14,3.25-1.79,7.03-2.6,10.73-2.28-.45,.76-.91,1.53-1.36,2.29,3.01-1.67,6.02-3.34,9.04-5.01,.14,1.15,.29,2.3,.43,3.45,4.23-4.44,8.45-8.88,12.68-13.33-16.23,2.22-33.14,5.42-48.5,11.24,2.19,.22,18.11,2,19.15,.49Z"/></g><g><path class="cls-26" d="M180.87,94.9c1.82-1.45,4.71-.19,5.84,1.85,1.13,2.04,1.05,4.49,1.13,6.82,.08,2.33,.47,4.86,2.2,6.42-1.72-4.04,.76-8.87,4.43-11.27s8.21-2.97,12.56-3.47c-2.49-3.53-6.57-5.89-10.87-6.29-1.42-.13-3.04-.14-4.01-1.18-.6-.65-.81-1.56-.99-2.43-1.37-6.5-2.73-13-4.1-19.51-.25,3.31-1,6.59-2.24,9.67,1.73-4.31-6.05-15.51-10.53-13.15,7.14,7.17,7.36,23.08,6.58,32.55Z"/><path class="cls-5" d="M180.87,94.9c1.82-1.45,4.71-.19,5.84,1.85,1.13,2.04,1.05,4.49,1.13,6.82,.08,2.33,.47,4.86,2.2,6.42-1.72-4.04,.76-8.87,4.43-11.27s8.21-2.97,12.56-3.47c-2.49-3.53-6.57-5.89-10.87-6.29-1.42-.13-3.04-.14-4.01-1.18-.6-.65-.81-1.56-.99-2.43-1.37-6.5-2.73-13-4.1-19.51-.25,3.31-1,6.59-2.24,9.67,1.73-4.31-6.05-15.51-10.53-13.15,7.14,7.17,7.36,23.08,6.58,32.55Z"/></g><g><path class="cls-26" d="M190.09,46.62c6.76,6.06,10.68,14.58,14.42,22.86,3.76,8.32,7.52,16.65,11.28,24.97,2.41-2.79,3-7.02,1.43-10.35,.26,6.19,6.47,11.46,12.62,10.71-.16-4.63-.33-9.26-.49-13.9,2.01,3.76,4.01,7.51,6.02,11.27,.07-5.97-.74-11.95-2.4-17.69,3.44,2.86,4.54,7.57,6.22,11.72,1.68,4.15,4.95,8.48,9.42,8.35,1.39-.24,1.97,2.09,.87,2.98s-2.73,.56-4-.06c-1.27-.62-2.46-1.5-3.87-1.64-3.56-.34-5.52,3.85-7.94,6.49-4.14,4.52-11.02,4.88-17.15,4.92-.56-9.6-14.49-19.37-15.15-21.85-5.23-19.49-2.46-28.25-10.91-37.15,.79,.82,1.57,1.64,2.36,2.46"/><path class="cls-5" d="M190.09,46.62c6.76,6.06,10.68,14.58,14.42,22.86,3.76,8.32,7.52,16.65,11.28,24.97,2.41-2.79,3-7.02,1.43-10.35,.26,6.19,6.47,11.46,12.62,10.71-.16-4.63-.33-9.26-.49-13.9,2.01,3.76,4.01,7.51,6.02,11.27,.07-5.97-.74-11.95-2.4-17.69,3.44,2.86,4.54,7.57,6.22,11.72,1.68,4.15,4.95,8.48,9.42,8.35,1.39-.24,1.97,2.09,.87,2.98s-2.73,.56-4-.06c-1.27-.62-2.46-1.5-3.87-1.64-3.56-.34-5.52,3.85-7.94,6.49-4.14,4.52-11.02,4.88-17.15,4.92-.56-9.6-14.49-19.37-15.15-21.85-5.23-19.49-2.46-28.25-10.91-37.15,.79,.82,1.57,1.64,2.36,2.46"/></g><g><path class="cls-26" d="M212.97,42.49c3.15,1.05,6.6,.92,9.73,2.04,.37-1.72,.33-3.52-.11-5.22,2,3.12,3.21,6.75,3.47,10.44-8.35,.09-16.7,.19-25.05,.28-.67-.74-1.34-1.47-2.01-2.21,1.45-.9,2.9-1.81,4.35-2.71,1.48,1.73,4.14,2.32,6.21,1.37-1.49-2.15-3.12-5.23-2.49-7.67,2.17,.48,3.48,2.87,5.9,3.68Z"/><path class="cls-5" d="M212.97,42.49c3.15,1.05,6.6,.92,9.73,2.04,.37-1.72,.33-3.52-.11-5.22,2,3.12,3.21,6.75,3.47,10.44-8.35,.09-16.7,.19-25.05,.28-.67-.74-1.34-1.47-2.01-2.21,1.45-.9,2.9-1.81,4.35-2.71,1.48,1.73,4.14,2.32,6.21,1.37-1.49-2.15-3.12-5.23-2.49-7.67,2.17,.48,3.48,2.87,5.9,3.68Z"/></g><g><path class="cls-26" d="M148.15,128.65s.95,8.08-.95,14.26c-1.9,6.18,2.85,7.6,8.08,.48,5.23-7.13,6.18-10.46,.95-12.83-5.23-2.38-8.08-1.9-8.08-1.9Z"/><path class="cls-5" d="M148.15,128.65s.95,8.08-.95,14.26c-1.9,6.18,2.85,7.6,8.08,.48,5.23-7.13,6.18-10.46,.95-12.83-5.23-2.38-8.08-1.9-8.08-1.9Z"/></g><g><path class="cls-26" d="M109.18,130.55s3.33,8.08,2.85,13.78c-.48,5.7,4.28-.48,4.28-.48l-1.43,8.55s7.13-9.5,6.18-14.73c-.95-5.23-11.88-7.13-11.88-7.13Z"/><path class="cls-5" d="M109.18,130.55s3.33,8.08,2.85,13.78c-.48,5.7,4.28-.48,4.28-.48l-1.43,8.55s7.13-9.5,6.18-14.73c-.95-5.23-11.88-7.13-11.88-7.13Z"/></g><path class="cls-26" d="M306.25,159.92c-.64-2.2-4.31-2.51-5.3-.44,.99-1.93-1.37-3.75-2.89-5.29-3.92-3.97-3.05-10.44-1.91-15.9-4.58,2.95-7.1,8.8-6.11,14.16-.93-1.97-3.51-2.96-5.52-2.12s-3.11,3.39-2.34,5.43c-2.63,.43-5.32,.87-7.96,.45-2.64-.41-5.26-1.82-6.45-4.22-.58-1.17-1.2-2.81-2.5-2.67-.88,.09-1.4,1-2.11,1.54-2.25,1.73-5.44-.76-6.47-3.4-1.03-2.64-1.33-5.84-3.57-7.57-.14,1.85-.27,3.7-.41,5.55l.35,2.44c3.46,6.65,6.92,13.29,10.37,19.94,.84-2.31,1.98-4.91,4.34-5.6,2.05-.61,4.17,.5,6.09,1.45,8.24,4.08,17.64,5.78,26.78,4.85,.44-1.69,.88-3.38,1.33-5.07,4.44,1.63,8.89,3.26,13.33,4.9-3.01-2.8-6.03-5.61-9.04-8.41Z"/><path class="cls-5" d="M306.25,159.92c-.64-2.2-4.31-2.51-5.3-.44,.99-1.93-1.37-3.75-2.89-5.29-3.92-3.97-3.05-10.44-1.91-15.9-4.58,2.95-7.1,8.8-6.11,14.16-.93-1.97-3.51-2.96-5.52-2.12s-3.11,3.39-2.34,5.43c-2.63,.43-5.32,.87-7.96,.45-2.64-.41-5.26-1.82-6.45-4.22-.58-1.17-1.2-2.81-2.5-2.67-.88,.09-1.4,1-2.11,1.54-2.25,1.73-5.44-.76-6.47-3.4-1.03-2.64-1.33-5.84-3.57-7.57-.14,1.85-.27,3.7-.41,5.55l.35,2.44c3.46,6.65,6.92,13.29,10.37,19.94,.84-2.31,1.98-4.91,4.34-5.6,2.05-.61,4.17,.5,6.09,1.45,8.24,4.08,17.64,5.78,26.78,4.85,.44-1.69,.88-3.38,1.33-5.07,4.44,1.63,8.89,3.26,13.33,4.9-3.01-2.8-6.03-5.61-9.04-8.41Z"/></g><path class="cls-11" d="M6.52,248.89l39.53-56.93,23.23-6.97,5.17-17.88c2.45-8.46,8.32-15.51,16.19-19.45h0l9.6-29.25,29.42-6.97,33.91-68.8,22.45-.77,20.9-10.06,18.58-7.74,20.13,23.23,18.58,44.13,27.25,19.25,27.87,55.74h0c23.98,8.8,44.38,25.25,58.07,46.82l25.82,40.68-258.07,13.92L6.52,248.89Z"/></g><g><path class="cls-11" d="M117.11,225.98c-2.79,10.08-5.57,20.16-8.36,30.24"/><path class="cls-11" d="M242.67,114.13c5.88-3.03,11.76-6.07,17.64-9.1"/><path class="cls-11" d="M256.09,129.1c3.64-3.41,7.84-6.21,12.39-8.26,3.92-1.77,8.6-.28,12.9-.31"/><path class="cls-11" d="M56.34,251.93c6.83-10.18,18.3-18.93,20.47-31,1.14-6.35,2.28-12.69,3.42-19.04"/><path class="cls-11" d="M167.16,46.91l5.23,9.03s-6.18,3.33-7.6,10.93c-1.43,7.6-1.9,24.24-1.9,24.24,0,0-5.23,1.9-7.13,6.65-1.9,4.75-3.33,17.11-3.33,17.11l28.99,2.85,19.96-3.8"/><path class="cls-11" d="M187.59,46.43l6.18,6.65,7.13,32.32,9.03,6.18,5.7,15.68,18.06-2.38s.95-6.65,5.7-7.6c4.75-.95,7.13,2.38,7.13,2.38l4.75-2.85"/><path class="cls-4" d="M201.85,51.19h22.34l5.23-2.38s4.28,2.38,7.13,1.43c2.85-.95,6.65-.95,6.65-.95"/><path class="cls-11" d="M287.39,112.49l-10.93,2.85s-15.21-.95-19.01-.95-11.41,12.36-11.41,12.36l-28.51,1.43-28.99,6.65s-21.86,.48-25.19-2.85c-3.33-3.33-15.68-6.18-15.68-6.18l-10.93,6.65-11.88,1.9-17.11-9.03"/><path class="cls-11" d="M73.53,185.68l25.19,2.38,19.49-8.55s10.93-3.33,28.51-4.28"/><path class="cls-11" d="M274.56,164.29s18.53,4.28,26.14,3.33c0,0-.95-4.75,2.85-4.75s7.13,4.75,7.13,4.75l5.7-.48"/><polyline class="cls-11" points="247.95 139.58 263.16 166.2 285.97 183.3 304.5 215.15 309.25 223.7"/><path class="cls-11" d="M335.87,208.02s-2.85-5.23-6.18-9.98c-3.33-4.75-10.93-3.33-10.93-3.33l-7.6-9.98-24.71-11.88"/><path class="cls-11" d="M144.34,185.21s-7.6,13.31-10.46,24.71c-2.85,11.41-6.18,19.96-6.18,19.96,0,0-6.18,6.18-9.03,10.93-2.85,4.75-3.8,15.68-3.8,15.68"/><path class="cls-11" d="M138.39,261.2c1.18-10.64,5.76-20.85,12.79-28.91l8.28-26.65c2.17-7,6.73-10.01,12.87-14v-3l5.23-19.49"/></g></g><g id="Landscape"><g><g><g><g><path class="cls-26" d="M449.1,222.03c-.27,4.69-.74,9.33-1.38,13.92-.85,6.07-2.01,12.07-3.48,17.95-3.43,13.84-8.54,27.14-15.1,39.73-3.07,5.93-6.48,11.7-10.2,17.28-75.1,2.28-229.91,4.11-278.51-17.26h-.01c-.49-.22-.96-.43-1.42-.65-.46-.22-.91-.45-1.36-.66-.62-.32-1.22-.63-1.79-.96h-.01c-.58-.33-1.13-.65-1.66-.98-.03-.01-.07-.03-.1-.05-.5-.33-.98-.64-1.43-.96-.97-.68-1.86-1.39-2.64-2.11-.2-.18-.38-.37-.56-.54-.18-.17-.35-.35-.52-.53,0,0-.01-.01-.01-.02-.35-.37-.67-.75-.96-1.13-.15-.2-.29-.38-.42-.58-.27-.39-.51-.78-.73-1.17-.12-.21-.22-.42-.33-.63-.02-.05-.05-.12-.09-.18-.1-.24-.2-.47-.28-.71-.09-.25-.17-.51-.25-.77-.07-.26-.13-.52-.18-.78-.05-.31-.11-.63-.14-.96-.15-1.49,.03-3.05,.59-4.68,.09-.26,.18-.51,.28-.77,.3-.78,.68-1.57,1.16-2.39,.31-.53,.66-1.08,1.04-1.62,.18-.27,.39-.55,.61-.84,.63-.84,1.34-1.68,2.15-2.55h0c.28-.3,.55-.59,.84-.88h.01c.05-.04,.23-.14,.52-.29,.1-.05,.22-.12,.36-.2,1.15-.6,3.46-1.72,7.15-3.23,.22-.1,.43-.18,.66-.27,.52-.22,1.08-.43,1.65-.67h.01c2.15-.85,4.68-1.78,7.6-2.8,.34-.12,.67-.24,1.02-.36,2.43-.84,5.14-1.72,8.11-2.64,.42-.13,.85-.27,1.29-.4,.54-.16,1.1-.34,1.66-.5,1.14-.35,2.31-.69,3.53-1.04,4.43-1.28,9.35-2.62,14.81-3.99,1.18-.3,2.4-.6,3.64-.9,1.23-.29,2.49-.6,3.78-.9,4.51-1.06,9.33-2.14,14.49-3.21,1.47-.3,2.98-.62,4.5-.92,.77-.15,1.53-.31,2.31-.47,1.1-.22,2.2-.43,3.33-.65,1.27-.25,2.55-.49,3.86-.74,2.47-.47,4.98-.92,7.57-1.39,2.24-.39,4.53-.79,6.86-1.19,1.87-.3,3.76-.63,5.69-.93,1.26-.21,2.55-.41,3.84-.62,1.11-.17,2.22-.35,3.33-.52,1.76-.27,3.54-.54,5.35-.81,1-.15,2-.3,3.01-.45,3.04-.45,6.14-.88,9.32-1.31,2.06-.28,4.15-.56,6.28-.85,1.14-.14,2.29-.29,3.45-.45,1.11-.14,2.22-.28,3.33-.42,4.56-.56,9.25-1.13,14.09-1.68,2.29-.26,4.62-.52,6.97-.77,.47-.04,.93-.1,1.4-.15h.01c.75-.08,1.51-.15,2.27-.24,2.47-.26,4.97-.52,7.52-.77,.59-.05,1.17-.11,1.76-.17,1.97-.2,3.94-.39,5.95-.58,2.57-.25,5.19-.49,7.83-.72,1.47-.13,2.94-.26,4.43-.39,2.09-.17,4.19-.36,6.32-.53,6.06-.49,12.28-.97,18.68-1.43,1.46-.1,2.92-.21,4.4-.3,1.48-.1,2.96-.21,4.46-.3,3.11-.2,6.24-.4,9.43-.6,2.94-.18,5.93-.36,8.94-.52,1.57-.09,3.15-.18,4.73-.26,1.81-.1,3.64-.2,5.47-.29,2.99-.15,5.99-.3,9.05-.45,1.64-.08,3.29-.15,4.95-.23h45.88Z"/><path class="cls-8" d="M449.1,222.03c-.27,4.69-.74,9.33-1.38,13.92-.85,6.07-2.01,12.07-3.48,17.95-3.43,13.84-8.54,27.14-15.1,39.73-3.07,5.93-6.48,11.7-10.2,17.28-75.1,2.28-229.91,4.11-278.51-17.26h-.01c-.49-.22-.96-.43-1.42-.65-.46-.22-.91-.45-1.36-.66-.62-.32-1.22-.63-1.79-.96h-.01c-.58-.33-1.13-.65-1.66-.98-.03-.01-.07-.03-.1-.05-.5-.33-.98-.64-1.43-.96-.97-.68-1.86-1.39-2.64-2.11-.2-.18-.38-.37-.56-.54-.18-.17-.35-.35-.52-.53,0,0-.01-.01-.01-.02-.35-.37-.67-.75-.96-1.13-.15-.2-.29-.38-.42-.58-.27-.39-.51-.78-.73-1.17-.12-.21-.22-.42-.33-.63-.02-.05-.05-.12-.09-.18-.1-.24-.2-.47-.28-.71-.09-.25-.17-.51-.25-.77-.07-.26-.13-.52-.18-.78-.05-.31-.11-.63-.14-.96-.15-1.49,.03-3.05,.59-4.68,.09-.26,.18-.51,.28-.77,.3-.78,.68-1.57,1.16-2.39,.31-.53,.66-1.08,1.04-1.62,.18-.27,.39-.55,.61-.84,.63-.84,1.34-1.68,2.15-2.55h0c.28-.3,.55-.59,.84-.88h.01c.05-.04,.23-.14,.52-.29,.1-.05,.22-.12,.36-.2,1.15-.6,3.46-1.72,7.15-3.23,.22-.1,.43-.18,.66-.27,.52-.22,1.08-.43,1.65-.67h.01c2.15-.85,4.68-1.78,7.6-2.8,.34-.12,.67-.24,1.02-.36,2.43-.84,5.14-1.72,8.11-2.64,.42-.13,.85-.27,1.29-.4,.54-.16,1.1-.34,1.66-.5,1.14-.35,2.31-.69,3.53-1.04,4.43-1.28,9.35-2.62,14.81-3.99,1.18-.3,2.4-.6,3.64-.9,1.23-.29,2.49-.6,3.78-.9,4.51-1.06,9.33-2.14,14.49-3.21,1.47-.3,2.98-.62,4.5-.92,.77-.15,1.53-.31,2.31-.47,1.1-.22,2.2-.43,3.33-.65,1.27-.25,2.55-.49,3.86-.74,2.47-.47,4.98-.92,7.57-1.39,2.24-.39,4.53-.79,6.86-1.19,1.87-.3,3.76-.63,5.69-.93,1.26-.21,2.55-.41,3.84-.62,1.11-.17,2.22-.35,3.33-.52,1.76-.27,3.54-.54,5.35-.81,1-.15,2-.3,3.01-.45,3.04-.45,6.14-.88,9.32-1.31,2.06-.28,4.15-.56,6.28-.85,1.14-.14,2.29-.29,3.45-.45,1.11-.14,2.22-.28,3.33-.42,4.56-.56,9.25-1.13,14.09-1.68,2.29-.26,4.62-.52,6.97-.77,.47-.04,.93-.1,1.4-.15h.01c.75-.08,1.51-.15,2.27-.24,2.47-.26,4.97-.52,7.52-.77,.59-.05,1.17-.11,1.76-.17,1.97-.2,3.94-.39,5.95-.58,2.57-.25,5.19-.49,7.83-.72,1.47-.13,2.94-.26,4.43-.39,2.09-.17,4.19-.36,6.32-.53,6.06-.49,12.28-.97,18.68-1.43,1.46-.1,2.92-.21,4.4-.3,1.48-.1,2.96-.21,4.46-.3,3.11-.2,6.24-.4,9.43-.6,2.94-.18,5.93-.36,8.94-.52,1.57-.09,3.15-.18,4.73-.26,1.81-.1,3.64-.2,5.47-.29,2.99-.15,5.99-.3,9.05-.45,1.64-.08,3.29-.15,4.95-.23h45.88Z"/></g><g><path class="cls-26" d="M449.1,222.03c-.27,4.69-.74,9.33-1.38,13.92-.85,6.07-2.01,12.07-3.48,17.95h-41.03c-76.24,3.42-132.65,9.98-173.65,17.01h-.01c-49.8,8.53-76.88,17.72-89.11,22.74h-.01c-.49-.22-.96-.43-1.42-.65-.46-.22-.91-.45-1.36-.66-.62-.32-1.22-.63-1.79-.96h-.01c-.58-.33-1.13-.65-1.66-.98-.03-.01-.07-.03-.1-.05-.5-.33-.98-.64-1.43-.96-.98-.67-1.86-1.38-2.64-2.11-.2-.18-.38-.37-.56-.54-.18-.17-.35-.35-.52-.53,0,0-.01-.01-.01-.02-.35-.37-.67-.75-.96-1.13-.15-.2-.29-.38-.42-.58-.27-.38-.52-.77-.73-1.17-.12-.21-.22-.42-.33-.63-.02-.05-.05-.12-.09-.18-.1-.24-.2-.47-.28-.71-.09-.25-.17-.51-.25-.77-.07-.26-.13-.52-.18-.78-.05-.31-.11-.63-.14-.96-.15-1.49,.03-3.05,.59-4.68,.09-.26,.18-.51,.28-.77,.3-.78,.68-1.57,1.16-2.39,.3-.53,.65-1.08,1.04-1.62,.18-.27,.39-.55,.61-.84,.63-.84,1.34-1.68,2.15-2.55h0c.26-.29,.54-.59,.83-.88h.02c.05-.04,.23-.14,.52-.29,.1-.05,.22-.12,.36-.2,1.15-.6,3.46-1.72,7.15-3.23,.22-.1,.43-.18,.66-.27,.52-.22,1.08-.43,1.65-.67h.01c2.15-.85,4.68-1.78,7.6-2.8,.34-.12,.67-.24,1.02-.36,2.43-.84,5.14-1.72,8.11-2.64,.42-.13,.85-.27,1.29-.4,.54-.16,1.1-.34,1.66-.5,1.14-.35,2.31-.69,3.53-1.04,4.43-1.28,9.35-2.62,14.81-3.99,1.18-.3,2.4-.6,3.64-.9,1.23-.29,2.49-.6,3.78-.9,4.51-1.06,9.33-2.14,14.49-3.21,1.47-.3,2.98-.62,4.5-.92,.77-.15,1.53-.31,2.31-.47,1.1-.22,2.2-.43,3.33-.65,1.27-.25,2.55-.49,3.86-.74,2.47-.47,4.98-.92,7.57-1.39,2.24-.39,4.53-.79,6.86-1.19,1.87-.3,3.76-.63,5.69-.93,1.26-.21,2.55-.41,3.84-.62,1.11-.17,2.22-.35,3.33-.52,1.76-.27,3.54-.54,5.35-.81,1-.15,2-.3,3.01-.45,3.04-.45,6.14-.88,9.32-1.31,2.06-.28,4.15-.56,6.28-.85,1.14-.14,2.29-.29,3.45-.45,1.11-.14,2.22-.28,3.33-.42,4.56-.56,9.25-1.13,14.09-1.68,2.29-.25,4.62-.51,6.97-.77,.47-.04,.93-.1,1.4-.15h.01c.75-.08,1.51-.15,2.27-.24,2.47-.26,4.97-.51,7.52-.77,.59-.05,1.17-.11,1.76-.17,1.97-.2,3.94-.38,5.95-.58,2.57-.24,5.18-.48,7.83-.72,1.47-.13,2.94-.26,4.43-.39,2.09-.17,4.19-.36,6.32-.53,6.06-.49,12.28-.97,18.68-1.43,1.46-.1,2.92-.21,4.4-.3,1.48-.1,2.96-.21,4.46-.3,3.11-.2,6.24-.4,9.43-.6,2.94-.18,5.93-.36,8.94-.52,1.57-.09,3.15-.18,4.73-.26,1.81-.1,3.64-.2,5.47-.29,2.99-.15,5.99-.3,9.05-.45,1.64-.08,3.29-.15,4.95-.23h45.88Z"/><path class="cls-3" d="M449.1,222.03c-.27,4.69-.74,9.33-1.38,13.92-.85,6.07-2.01,12.07-3.48,17.95h-41.03c-76.24,3.42-132.65,9.98-173.65,17.01h-.01c-49.8,8.53-76.88,17.72-89.11,22.74h-.01c-.49-.22-.96-.43-1.42-.65-.46-.22-.91-.45-1.36-.66-.62-.32-1.22-.63-1.79-.96h-.01c-.58-.33-1.13-.65-1.66-.98-.03-.01-.07-.03-.1-.05-.5-.33-.98-.64-1.43-.96-.98-.67-1.86-1.38-2.64-2.11-.2-.18-.38-.37-.56-.54-.18-.17-.35-.35-.52-.53,0,0-.01-.01-.01-.02-.35-.37-.67-.75-.96-1.13-.15-.2-.29-.38-.42-.58-.27-.38-.52-.77-.73-1.17-.12-.21-.22-.42-.33-.63-.02-.05-.05-.12-.09-.18-.1-.24-.2-.47-.28-.71-.09-.25-.17-.51-.25-.77-.07-.26-.13-.52-.18-.78-.05-.31-.11-.63-.14-.96-.15-1.49,.03-3.05,.59-4.68,.09-.26,.18-.51,.28-.77,.3-.78,.68-1.57,1.16-2.39,.3-.53,.65-1.08,1.04-1.62,.18-.27,.39-.55,.61-.84,.63-.84,1.34-1.68,2.15-2.55h0c.26-.29,.54-.59,.83-.88h.02c.05-.04,.23-.14,.52-.29,.1-.05,.22-.12,.36-.2,1.15-.6,3.46-1.72,7.15-3.23,.22-.1,.43-.18,.66-.27,.52-.22,1.08-.43,1.65-.67h.01c2.15-.85,4.68-1.78,7.6-2.8,.34-.12,.67-.24,1.02-.36,2.43-.84,5.14-1.72,8.11-2.64,.42-.13,.85-.27,1.29-.4,.54-.16,1.1-.34,1.66-.5,1.14-.35,2.31-.69,3.53-1.04,4.43-1.28,9.35-2.62,14.81-3.99,1.18-.3,2.4-.6,3.64-.9,1.23-.29,2.49-.6,3.78-.9,4.51-1.06,9.33-2.14,14.49-3.21,1.47-.3,2.98-.62,4.5-.92,.77-.15,1.53-.31,2.31-.47,1.1-.22,2.2-.43,3.33-.65,1.27-.25,2.55-.49,3.86-.74,2.47-.47,4.98-.92,7.57-1.39,2.24-.39,4.53-.79,6.86-1.19,1.87-.3,3.76-.63,5.69-.93,1.26-.21,2.55-.41,3.84-.62,1.11-.17,2.22-.35,3.33-.52,1.76-.27,3.54-.54,5.35-.81,1-.15,2-.3,3.01-.45,3.04-.45,6.14-.88,9.32-1.31,2.06-.28,4.15-.56,6.28-.85,1.14-.14,2.29-.29,3.45-.45,1.11-.14,2.22-.28,3.33-.42,4.56-.56,9.25-1.13,14.09-1.68,2.29-.25,4.62-.51,6.97-.77,.47-.04,.93-.1,1.4-.15h.01c.75-.08,1.51-.15,2.27-.24,2.47-.26,4.97-.51,7.52-.77,.59-.05,1.17-.11,1.76-.17,1.97-.2,3.94-.38,5.95-.58,2.57-.24,5.18-.48,7.83-.72,1.47-.13,2.94-.26,4.43-.39,2.09-.17,4.19-.36,6.32-.53,6.06-.49,12.28-.97,18.68-1.43,1.46-.1,2.92-.21,4.4-.3,1.48-.1,2.96-.21,4.46-.3,3.11-.2,6.24-.4,9.43-.6,2.94-.18,5.93-.36,8.94-.52,1.57-.09,3.15-.18,4.73-.26,1.81-.1,3.64-.2,5.47-.29,2.99-.15,5.99-.3,9.05-.45,1.64-.08,3.29-.15,4.95-.23h45.88Z"/><path class="cls-18" d="M444.24,253.91h-41.03c-76.24,3.42-132.65,9.98-173.65,17.01h-.01c-49.8,8.53-76.88,17.72-89.11,22.74"/></g><g><path class="cls-26" d="M418.84,311.08l-220.73,6.97-157.8,4.94c-18-23.06-30.55-49.65-36.03-78.36,3.1,.37,33.54,4,76.85,9.09,9.72,1.14,20.09,2.36,30.94,3.63,9.81,1.14,20.02,2.34,30.5,3.55h.01c27.81,3.24,57.57,6.66,86.99,10.01,70.04,7.96,138.23,15.45,174.08,18.67,10.12,.91,18.54,2.35,25.51,4.05-3.07,5.93-6.48,11.7-10.2,17.28l-.11,.16Z"/><path class="cls-21" d="M418.84,311.08l-220.73,6.97-157.8,4.94c-18-23.06-30.55-49.65-36.03-78.36,3.1,.37,33.54,4,76.85,9.09,9.72,1.14,20.09,2.36,30.94,3.63,9.81,1.14,20.02,2.34,30.5,3.55h.01c27.81,3.24,57.57,6.66,86.99,10.01,70.04,7.96,138.23,15.45,174.08,18.67,10.12,.91,18.54,2.35,25.51,4.05-3.07,5.93-6.48,11.7-10.2,17.28l-.11,.16Z"/><path class="cls-18" d="M4.28,244.63c3.1,.37,33.54,4,76.85,9.09,9.72,1.14,20.09,2.36,30.94,3.63,9.81,1.14,20.02,2.34,30.5,3.55h.01c27.81,3.24,57.57,6.66,86.99,10.01,70.04,7.96,138.23,15.45,174.08,18.67,10.12,.91,18.54,2.35,25.51,4.05"/></g></g><g><polygon class="cls-2" points="317.53 284.57 326.89 268.09 336.48 284.44 317.53 284.57"/><polygon class="cls-22" points="320.14 284.37 326.87 272.52 333.77 284.28 320.14 284.37"/><line class="cls-14" x1="326.87" y1="272.52" x2="326.95" y2="284.5"/><polygon class="cls-22" points="326.89 268.09 336.48 284.44 356.32 284.3 346.74 267.96 326.89 268.09"/><polygon class="cls-22" points="335.84 272.28 339.63 278.74 347.49 278.69 343.7 272.22 335.84 272.28"/></g><g><path class="cls-26" d="M449.4,211.7c0,.96-.01,1.92-.03,2.88,0,.41,0,.83-.02,1.24-.01,.67-.03,1.35-.05,2.01-.01,.4-.02,.81-.05,1.22-.03,1-.08,2-.14,3-.07,1.05-.13,2.11-.22,3.15-.04,.63-.1,1.26-.16,1.89-.04,.64-.11,1.28-.17,1.91-.1,1.03-.21,2.06-.34,3.08-.08,.72-.16,1.44-.26,2.16-.04,.38-.1,.75-.15,1.13-.02,.2-.04,.4-.08,.6h-.01c-18.22,5.79-60.66,11.21-154.8-4.75,0,0,1.47-.41,4.11-1.39h.01c12.7-4.68,52.38-22.23,84.11-67.91,17.77-25.58,36.08-19.03,50.61-4.64,11.1,19.75,17.66,38.55,17.66,54.42Z"/><g class="cls-23"><path class="cls-2" d="M449.4,211.7c0,.96-.01,1.92-.03,2.88,0,.41,0,.83-.02,1.24-.01,.67-.03,1.35-.05,2.01-.01,.4-.02,.81-.05,1.22-.03,1-.08,2-.14,3-.07,1.05-.13,2.11-.22,3.15-.04,.63-.1,1.26-.16,1.89-.04,.64-.11,1.28-.17,1.91-.1,1.03-.21,2.06-.34,3.08-.08,.72-.16,1.44-.26,2.16-.04,.38-.1,.75-.15,1.13-.02,.2-.04,.4-.08,.6h-.01c-18.22,5.79-60.66,11.21-154.8-4.75,0,0,1.47-.41,4.11-1.39h.01c12.7-4.68,52.38-22.23,84.11-67.91,17.77-25.58,36.08-19.03,50.61-4.64,11.1,19.75,17.66,38.55,17.66,54.42Z"/></g></g></g><path class="cls-18" d="M447.71,235.96c-18.22,5.79-60.66,11.21-154.8-4.75"/></g></g><g id="Plants"><g><g><polygon class="cls-26" points="0 276.76 14.98 234.33 4.25 234.33 17.1 197.93 8.51 197.93 29.95 137.17 51.4 197.93 42.81 197.93 55.66 234.33 44.93 234.33 59.91 276.76 0 276.76"/><polygon class="cls-25" points="31.94 303.44 29.52 179.05 28.92 302.69 31.94 303.44"/><g><path class="cls-25" d="M29.22,180.02s-4.76,8.18-13.31,10.66c0,0,9.03-2.04,13.55-9.08l-.23-1.58Z"/><path class="cls-25" d="M30.58,246.89s-8.49,14.34-22.7,18.49c0,0,15.14-3.94,22.64-15.63l.06-2.85Z"/><path class="cls-25" d="M29.33,209.95s-7.43,12.64-20.23,16.35c0,0,13.51-3.05,20.27-13.59l-.04-2.76Z"/><path class="cls-25" d="M30.06,218.88s6.87,12.23,19.22,15.98c0,0-13.05-3.06-19.56-13.59l.34-2.38Z"/><path class="cls-25" d="M31.16,253.56s7.62,13.58,21.33,17.73c0,0-14.48-3.4-21.71-15.08l.37-2.65Z"/><path class="cls-25" d="M29.92,183.35s4.59,8.18,12.85,10.68c0,0-8.72-2.05-13.07-9.08l.22-1.59Z"/></g></g><g><polygon class="cls-26" points="352.94 276.72 358.42 261.21 354.5 261.21 359.19 247.91 356.05 247.91 363.89 225.7 371.73 247.91 368.59 247.91 373.28 261.21 369.36 261.21 374.84 276.72 352.94 276.72"/><polygon class="cls-25" points="364.62 286.47 363.73 241.01 363.51 286.2 364.62 286.47"/><g><path class="cls-25" d="M363.62,241.36s-1.74,2.99-4.87,3.9c0,0,3.3-.75,4.95-3.32l-.09-.58Z"/><path class="cls-25" d="M364.12,265.8s-3.1,5.24-8.3,6.76c0,0,5.53-1.44,8.27-5.71l.02-1.04Z"/><path class="cls-25" d="M363.66,252.3s-2.72,4.62-7.4,5.98c0,0,4.94-1.12,7.41-4.97v-1.01Z"/><path class="cls-25" d="M363.93,255.57s2.51,4.47,7.03,5.84c0,0-4.77-1.12-7.15-4.97l.12-.87Z"/><path class="cls-25" d="M364.33,268.24s2.78,4.96,7.8,6.48c0,0-5.29-1.24-7.93-5.51l.14-.97Z"/><path class="cls-25" d="M363.88,242.58s1.68,2.99,4.7,3.9c0,0-3.19-.75-4.78-3.32l.08-.58Z"/></g></g><g><polygon class="cls-26" points="70.76 291.87 84.15 253.95 74.56 253.95 86.05 221.41 78.36 221.41 97.54 167.11 116.71 221.41 109.02 221.41 120.51 253.95 110.92 253.95 124.31 291.87 70.76 291.87"/><polygon class="cls-25" points="99.31 315.72 97.15 204.54 96.61 315.05 99.31 315.72"/><g><path class="cls-25" d="M96.88,205.41s-4.25,7.31-11.9,9.53c0,0,8.07-1.82,12.11-8.12l-.21-1.41Z"/><path class="cls-25" d="M98.1,265.17s-7.59,12.82-20.29,16.52c0,0,13.53-3.52,20.24-13.97l.05-2.55Z"/><path class="cls-25" d="M96.97,232.16s-6.64,11.3-18.08,14.61c0,0,12.08-2.73,18.12-12.15l-.03-2.46Z"/><path class="cls-25" d="M97.63,240.14s6.14,10.93,17.18,14.28c0,0-11.66-2.74-17.48-12.15l.3-2.13Z"/><path class="cls-25" d="M98.61,271.14s6.81,12.13,19.07,15.85c0,0-12.94-3.04-19.4-13.48l.33-2.37Z"/><path class="cls-25" d="M97.51,208.38s4.1,7.31,11.48,9.54c0,0-7.79-1.83-11.68-8.12l.2-1.42Z"/></g></g><g><polygon class="cls-26" points="373.59 271.29 385.18 238.47 376.88 238.47 386.82 210.31 380.17 210.31 396.76 163.31 413.35 210.31 406.7 210.31 416.64 238.47 408.35 238.47 419.93 271.29 373.59 271.29"/><polygon class="cls-25" points="398.3 291.92 396.43 195.71 395.96 291.34 398.3 291.92"/><g><path class="cls-25" d="M396.2,196.46s-3.68,6.33-10.3,8.25c0,0,6.98-1.58,10.48-7.03l-.18-1.22Z"/><path class="cls-25" d="M397.25,248.18s-6.57,11.09-17.56,14.3c0,0,11.71-3.04,17.51-12.09l.04-2.21Z"/><path class="cls-25" d="M396.28,219.61s-5.75,9.78-15.65,12.65c0,0,10.45-2.36,15.68-10.51l-.03-2.13Z"/><path class="cls-25" d="M396.85,226.52s5.31,9.46,14.87,12.36c0,0-10.09-2.37-15.13-10.51l.26-1.84Z"/><path class="cls-25" d="M397.69,253.34s5.89,10.5,16.5,13.71c0,0-11.2-2.63-16.79-11.67l.29-2.05Z"/><path class="cls-25" d="M396.74,199.04s3.55,6.32,9.94,8.26c0,0-6.74-1.58-10.11-7.03l.17-1.23Z"/></g></g></g></g><g id="Floor"><g><g><g><path class="cls-19" d="M416.47,311.6c-38.9,58.38-111,97.59-193.53,97.59-76.8,0-144.58-33.96-184.96-85.74l378.49-11.85Z"/><path class="cls-26" d="M135.91,312.04c1.47,1.28,2.94,2.55,4.41,3.83-.99-3.98-1.98-7.96-2.96-11.94,1.85,3.8,3.7,7.6,5.55,11.4-.25-4.12-.49-8.25-.74-12.37,1.08,4.35,2.17,8.7,3.25,13.06,1.11-4.48,2.21-8.97,3.32-13.45,.06,7.55,.11,15.1,.17,22.65-3.39,.12-7.77,1.51-9.58-1.72-1.88-3.34-.92-7.84-3.42-11.45Z"/><path class="cls-26" d="M317.11,306.73c1.95,1.7,3.91,3.4,5.86,5.09-1.31-5.3-2.63-10.59-3.94-15.89,2.46,5.06,4.93,10.11,7.39,15.17-.33-5.49-.66-10.97-.99-16.45,1.44,5.79,2.88,11.58,4.32,17.37,1.47-5.96,2.94-11.93,4.42-17.89,.08,10.04,.15,20.09,.23,30.13-4.51,.16-10.33,2.01-12.74-2.28-2.5-4.45-1.22-10.43-4.54-15.24Z"/><path class="cls-26" d="M398.4,290.39c2.47,2.14,4.93,4.28,7.4,6.43-1.66-6.68-3.32-13.37-4.98-20.05,3.11,6.38,6.22,12.76,9.32,19.14-.41-6.92-.83-13.84-1.24-20.76,1.82,7.3,3.64,14.61,5.45,21.91,1.86-7.53,3.72-15.05,5.57-22.58,.1,12.67,.19,25.35,.29,38.02-5.69,.2-13.03,2.54-16.08-2.88-3.16-5.61-1.54-13.16-5.73-19.23Z"/></g><g><path class="cls-22" d="M149.66,397.87l14.35-26.1,24.84-4.25,12.55-10.13s14-3.91,27.92-3.17c13.93,.74,21.62,3.96,21.62,3.96l5.59,5.25,13.38,2.79s12.73,11.04,14.29,10.55c1.56-.49,21.14,1.37,21.14,1.37l9.06,14.6s-70.68,62.89-164.75,5.14Z"/><path class="cls-20" d="M200.83,367.35c5.26-5.05,13.94-6.11,20.26-2.47,.22-1.52,.45-3.04,.67-4.57,2.38,.64,4.76,1.28,7.14,1.92,.28,1.51,.55,3.03,.83,4.54,7.8-.66,15.79,1.07,22.62,4.9-.08,1.89-.17,3.78-.25,5.66,1.24-2.79,4.5-4.51,7.5-3.96,3,.55,5.44,3.32,5.61,6.36,2.43-.8,5.28-.14,7.11,1.64,2.28-1.4,4.56-2.81,6.84-4.21-5.02-5.72-13.17-7.13-20.29-9.82-11.03-4.16-21.55-12.19-33.22-10.55,.72,.76,1.44,1.51,2.16,2.27-2.17,1.77-6.03,.47-6.68-2.26-6.54,.7-13.08,1.4-19.63,2.1,.01,.94,.06,1.87-.04,2.8-.43-.29-.97-.63-1.35-.93,0,1.27,1.89,5.44,.72,6.56Z"/><path class="cls-20" d="M182.5,387.87c-2.04-3.51-4.07-7.01-6.11-10.52,7.39-.21,14.01,4.21,20.07,8.45l-7.13-12.29c-.45-.77-.96-1.61-1.81-1.91-.63-.23-1.33-.11-2,.01-4.3,.79-14.82,.84-17.65,4.02,1.73,2.58,4.75,4.73,7.17,6.7,1.88,1.53,6.29,3.56,7.46,5.54Z"/><path class="cls-20" d="M280.42,386.53c1.32,.45,2.74,1.03,3.43,2.25,.69,1.22,.08,3.18-1.32,3.24,5.5-1.87,11-3.75,16.51-5.62-1.44,2.85-3.89,5.19-6.8,6.49,2.25-.9,4.5-1.8,6.75-2.7,.95,1.97,1.91,3.93,2.86,5.9-.11-3.74,.77-7.5,2.51-10.82,.44,3.45,2.29,6.7,5.03,8.85-.62-2.91-1.26-5.87-2.72-8.46-1.46-2.59-3.89-4.8-6.83-5.24-2.64-.4-5.26,.65-7.91,1.03-3.87,.55-7.81-.35-11.7-.07-3.18,.23-7.23,1.66-8.39,4.86,2.73,.41,5.37-.8,8.6,.29Z"/></g></g><g><g><g><path class="cls-6" d="M34.61,299.28s-25.14,1.21-25.14,12.58v11.37l21.63,2.25,3.5-26.2Z"/><path class="cls-6" d="M40.53,283.02c-2.44,3.39-3.57,7.52-4.65,11.55-2.76,10.25-5.52,20.5-8.27,30.76,22.19,6.04,45.97,6.13,68.21,.28,3.84-1.01,8.2-2.73,9.3-6.55,1.23-4.26-2.33-8.28-5.59-11.3-4.34-4.03-8.69-8.06-13.03-12.09-9.41-8.73-34.36-28.76-45.95-12.64Z"/><path class="cls-6" d="M101.3,300.83c-1.51,2.1-2.21,4.66-2.89,7.16-1.71,6.36-3.42,12.72-5.13,19.08,13.76,3.74,28.51,3.8,42.31,.17,2.38-.63,5.09-1.69,5.77-4.06,.76-2.65-1.45-5.14-3.47-7.01-2.7-2.5-5.39-5-8.09-7.5-5.84-5.41-21.31-17.84-28.51-7.84Z"/></g><path class="cls-6" d="M381.39,290.16c-7.49,.38-15.27,2.3-20.75,7.42-5.48,5.12-7.85,14.05-3.83,20.38,2.31,3.64,6.32,5.92,10.48,7.03,4.16,1.11,8.52,1.17,12.83,1.22,7.56,.09,15.12,.18,22.68,.28,3.78,.05,7.61,.09,11.26-.9,3.65-.98,7.15-3.13,8.91-6.48,2.99-5.7-.5-8.48-4.23-11.81-3.67-3.27-4.94-5.47-7.9-8.98-6.56-7.8-19.49-8.67-29.45-8.17Z"/></g><path class="cls-6" d="M333.66,325.12c2.72,4.45,8.93,4.79,14.14,4.63,9.09-.29,18.19-.58,27.28-.87,3.94-.13,8.66-.72,10.38-4.27,1.93-3.97-1.42-8.49-4.97-11.12-8.34-6.19-18.35-8.73-28.37-6.5-7.16,1.59-25.1,7.25-18.46,18.14Z"/></g></g></g><g id="Character"><g><g><g><polygon class="cls-22" points="295.9 404.25 291.89 404.25 289.38 171.4 298.42 171.4 295.9 404.25"/><g><g><g><path class="cls-7" d="M303.22,170.13c-.5-.93-1.55-.79-2.75-2.78-1.2-2-3.57-1.18-4.33-1.41-.75-.24-.79-.55-.6-1.57,.2-1.02,.57-4.39-1-4.18-1.57,.21-2.28,3.78-2.5,4.64-.73,1.59-1.57,3.14-2.5,4.64-.72,.27-1.46,.48-2.22,.62-.87,.12-1.68,1.89-1.72,2.71-.04,.53,1.07,2.07,1.9,3.14,.44,.93,.94,1.83,1.5,2.7,0,0,1.04,1.02,3.62,.35,2.58-.67,7.97,1.93,8.59,1.34,.63-.59,1.75-3.71,2.19-5.42,.43-1.58,.36-3.24-.2-4.79Z"/><path class="cls-7" d="M285.16,177.19c-.01-.9,.23-1.78,.71-2.56,.71-.76,1.64-3.26,2.51-3.73,.87-.47,6.64-1.82,9.9,.57,3.26,2.38,2.86,5.88,3.13,7.56,.26,1.68-3.91,7.28-4.96,7.48-1.04,.21,2.79-7.59-1.38-9.95-1.15-.65-6.37,.11-9.92,.62Z"/></g><g id="freepik--character-2--inject-2"><path class="cls-7" d="M238.06,92.64s1.64-2.52,2.23,.76c.59,3.28-.82,6.81-2.72,8.07-1.89,1.26-2.72,0-2.72-1.26s3.21-7.56,3.21-7.56Z"/><path class="cls-7" d="M206.27,93.91c-1.15-.4-2.44,.14-2.87,1.21-.14,.34-.18,.7-.11,1.06,0,3.03,4.34,7.32,6.25,6.31,1.9-1.01-3.26-8.57-3.26-8.57Z"/><path class="cls-16" d="M222.03,64.38s-4.24,6.56-8.69,8.33c-5.71,2.28-10.32,9.09-10.02,14.64s8.97,23.72,10.32,24.22c1.36,.51,18.48-.76,19.02-1.51,.55-.76,2.98-8.33,5.16-15.65,2.17-7.32,2.17-11.1,2.17-11.1,.79-2.37,1.16-4.84,1.11-7.31-.17-2.98-5.55-7.6-5.55-7.6,0,0-4.67-5.08-6.64-4.01-1.93,1.19-3.67,2.64-5.16,4.29l-1.73-4.29Z"/><path class="cls-7" d="M186.63,228.12s3.68,5.17,3.88,7.18c.2,2.01,.19,5.75,.38,7,.19,1.25-.58,2.16-1.54,2.16-.64-.06-1.21-.39-1.55-.9,.11,1.03,.31,2.05,.58,3.05,.38,1.26,2.51,2.34,2.32,3.59-.19,1.25-2.32,1.8-5.22,1.8-3.59-.02-6.8-2.07-8.12-5.17-1.74-3.76-3.47-14.54-3.47-16.55s10.83-3.6,12.75-2.16Z"/><path class="cls-9" d="M182.57,234.76s.77,1.61-.78,4.14c-1.05,1.49-1.83,3.13-2.32,4.85,.43,1.25,1.01,2.46,1.74,3.59,.78,1.44,3.34,1.26,3.49,2.52,.14,.68,0,1.38-.39,1.97"/><path class="cls-9" d="M185.01,242.44c.17,1.41,.52,2.8,1.04,4.14,.78,1.8,4.83,2.88,3.34,4.85"/><path class="cls-9" d="M182.57,243.2c.19,1.17,.51,2.31,.97,3.41,.58,1.03,4.45,2.15,3.68,5.03"/><path class="cls-9" d="M187.8,243.56s-.39-2.88-.58-3.95c-.14-1.03-.21-2.07-.2-3.1"/><path class="cls-7" d="M251.22,117.92c-5.08-3.69-11.05-6.2-17.38-7.31-10.87-2.02-25.27,1.26-30.97,4.79-3.44,2.24-5.71,5.72-6.25,9.59l54.6-7.06Z"/><path class="cls-13" d="M298.87,179.44c.46,7.28-15.62,15.21-23.23,6.05-5.62-6.76-14.33-35.34-14.33-35.34,0,0-2.05,44.12-2.05,46.9s-1.25,6.98-1.25,6.98c0,0-.44,3.08-2.33,4.34-1.88,1.27-2.68,4.98-26.07,6.75-13.95,1.14-28.02,.03-41.57-3.28-1.07-.26-1.62-6.06-1.62-6.06l-.82,16.9c-.97,1.01-2.18,1.78-3.53,2.27-2.17,.76-8.42,.25-9.77-.51-1.36-.76-4.11-21.19-3.81-24.71,.3-3.54,2.57-52.45,7.4-63.91,3.93-9.31,10.48-13.53,19.72-16.06,9.23-2.52,27.94-2.09,29.05-2.34,0,0,18.1,1.01,26.82-.5,0,0,16.31-.65,21.32,8.66,3.57,6.63,7.81,19.38,9.97,26.19,1.01,3.2,2.24,6.33,3.67,9.39l3.57,7.62c4.42,1.45,8.6,6.35,8.87,10.66Z"/><path class="cls-9" d="M215.72,134.52s3.68,13.45,14.48,18.94"/><path class="cls-9" d="M231.62,159.42c.82,.39,1.65,.78,2.51,1.15"/><path class="cls-9" d="M215.72,148.47c3.59,3.38,7.6,6.36,11.95,8.85"/><path class="cls-7" d="M264.86,202.51c-41.56,17.41-78.78,3.28-78.78,3.28,0,0,.55,5.8,1.63,6.06,13.55,3.3,27.62,4.41,41.57,3.28,23.39-1.77,33.14-5.05,35.04-6.31,1.89-1.26,1.64-5.05,1.64-5.05,0,0,0-.58,.11-1.48l-1.2,.22Z"/><path class="cls-7" d="M168.96,221.93s6.25,2.52,11.42,1.03,6.51-3.03,7.33-2.77c.81,.26,.82,6.3,0,8.07-.82,1.77-2.72,3.03-8.42,3.54-5.7,.51-8.69-2.07-9.23-3.54-.51-2.09-.87-4.2-1.09-6.33Z"/></g><path class="cls-9" d="M185.52,143.62c.07,13.12,1.48,26.22,4.18,39.1"/><path class="cls-17" d="M203.01,78.13c-2.55,5.49-2.57,9.02-.33,14.59,2.82,7.01,9.38,9.24,13.37,9.62,7.35,.7,14.5,.34,20.72-3.41,6.22-3.75,8.9-12.07,7.69-18.93-1.04-5.89-4.78-13.99-10.69-16.14-13.68-4.97-25.13,2.17-30.75,14.28Z"/><path class="cls-12" d="M205.53,72.92c-2.8,4.93-3.28,8.28-1.97,13.92,1.81,7.78,8.06,10.4,12.01,10.83,7.34,.8,14.5,.3,20.27-4.23,5.45-4.27,6.64-12.85,4.62-19.18-1.59-4.99-5.38-11.24-10.09-12.77-10.43-3.38-19.35,1.74-24.85,11.43Z"/><ellipse class="cls-16" cx="222.9" cy="71.49" rx="3.17" ry="2.79"/><path class="cls-15" d="M214.76,76.21c-3.76,5.91-3.64,13.55-2.81,20.87"/><path class="cls-15" d="M224.46,77.5c1.05,6.67,1.36,13.45,.91,20.18"/><path class="cls-15" d="M233.34,74.88c3.13,4.95,4.42,10.88,3.6,16.57"/><path class="cls-9" d="M289.99,173.99c.59,2.97-.44,6.18-2.69,8.37"/><path class="cls-9" d="M274.71,142.53c-.11,.73-.25,1.45-.41,2.17"/><path class="cls-9" d="M273.41,126.46c1.49,4.54,2.01,9.35,1.55,14.08"/></g><g><g><path class="cls-7" d="M190.58,215s-4.78,19.13-3.97,27.2-.61,32.14,2.43,50.59c4.3,26.16,3.07,51.08,3.55,63.75,.16,4.37-.24,8.77-1.63,12.95-.98,2.93-1.27,7.48,2.25,13.25,.06,1.03,2.27,.69,2.58,1.68,0,0,4.08,2.52,6.53,2.77,2.45,.25-.63,2.75,11.98-4.28,2.82-1.57,4.36-10.63,3.2-14.33-1.79-5.71,1.02-14.61,.36-42.23-.31-12.61-1.13-7.87,2.26-27.27,5.31-30.38,4.21-51.39,4.21-51.39,0,0,.8,4.56,.88,6.99,.4,12.32,3.37,48.67,3.95,79.54,.48,25.29,3.22,55.42,3.22,57.44s-.5,6.41-.5,8.18-.16,4.96,.65,6.22c.67,1.21,1.21,2.48,1.63,3.79,0,0,9.79,1.51,12.5,1.51s5.77-2.13,5.77-2.13l.49-1.99c1.17-4.74,3.24-5.76,3.75-10.6,3.18-30.25,5.25-41.74,5.44-130.77,0-3.51-3.25-48.6-3.25-48.6l-.55-6.06s-28.52,3.54-42.11,1.77c-13.59-1.77-24.72-2.28-24.72-2.28l-.86,4.29Z"/><g><path class="cls-10" d="M214.09,409.79c0,2.07-4.28,2.94-8.56,3.1-2.7,.03-5.35-.69-7.61-2.06,0,0-3.65,.28-4.92-1.18-1.27-1.48-.63-4.86,.17-6.03,.8-1.18,3.89-3.89,5.01-5.98,.7-1.36-2.39-6.42-2.72-15.44,.52-.65,1.6-1.14,2.98-1.49l.57,5.89s10.55-1.74,13.09,.31c.34,.28,.63,.31,.87,.15-.54,2.55-.89,5.98,.16,9.49,2.66,8.92,.96,12.41,.96,13.26Z"/><path class="cls-22" d="M212.97,387.04c-.24,.16-.53,.13-.87-.15-2.55-2.05-13.09-.31-13.09-.31l-.57-5.89c2.99-.77,7.33-.88,10.03-.58,2.29,.24,4.99,1.63,5.45,2.72,.13,.31-.49,1.9-.94,4.2Z"/><path class="cls-17" d="M197.94,410.78c2.26,1.37,4.91,2.09,7.61,2.06,4.28-.15,8.56-1.03,8.56-3.09v-1.63c-2.21,.9-4.59,1.4-7.01,1.48-5.71,.3-8.24-1.33-9.35-1.47-.9-.12-3.36,.44-5.45-.45,.03,.69,.27,1.35,.7,1.92,1.27,1.47,4.94,1.18,4.94,1.18Z"/><line class="cls-9" x1="197.92" y1="403.7" x2="198.56" y2="410.78"/></g><g><path class="cls-10" d="M232.26,435.01c0,2.3,4.74,3.25,9.47,3.43,2.99,.03,5.92-.77,8.43-2.28,0,0,4.04,.31,5.45-1.31,1.41-1.63,.7-5.38-.19-6.68-.89-1.31-4.31-4.31-5.54-6.62-.78-1.5,2.65-7.11,3.01-17.1-.57-.72-1.77-1.27-3.3-1.65l-.63,6.52s-11.68-1.93-14.5,.34c-.38,.31-.7,.34-.97,.16,.6,2.82,.98,6.62-.17,10.5-2.95,9.87-1.06,13.74-1.06,14.68Z"/><path class="cls-22" d="M233.5,409.82c.27,.18,.59,.15,.97-.16,2.82-2.27,14.5-.34,14.5-.34l.63-6.52c-3.31-.85-8.11-.97-11.11-.65-2.53,.26-5.53,1.81-6.04,3.02-.14,.34,.54,2.1,1.05,4.65Z"/><path class="cls-17" d="M255.61,434.8c.47-.62,.74-1.36,.77-2.12-2.31,.98-5.04,.36-6.03,.5-1.23,.16-4.03,1.95-10.35,1.63-2.67-.09-5.31-.64-7.76-1.64v1.81c0,2.28,4.74,3.25,9.48,3.42,2.99,.03,5.92-.76,8.42-2.28,0,0,4.06,.32,5.47-1.31Z"/><line class="cls-9" x1="249.46" y1="436.11" x2="250.17" y2="428.27"/></g></g><path class="cls-9" d="M195.75,306.7c2.1,8.7,7.1,16.81,14.23,22.79"/><path class="cls-9" d="M194.66,298.47c.04,1.7,.2,3.4,.47,5.08"/><path class="cls-9" d="M201.3,309.85c2.59,3.35,6.85,5.53,11.28,5.78"/><path class="cls-9" d="M234.68,345.76c7.12-1.7,13.48-6.02,17.39-11.81"/><path class="cls-9" d="M236.88,335.69c4.05-.29,7.96-2.09,10.66-4.91"/></g><polygon class="cls-22" points="196.57 161.44 188.02 120.1 199.9 117.72 203.7 160.49 196.57 161.44"/><polygon class="cls-22" points="251.85 159.54 260.4 118.2 248.52 115.82 244.72 158.59 251.85 159.54"/><g><polygon class="cls-16" points="215.34 153.37 215.34 177.95 215.23 177.95 211.87 183.36 208.52 177.95 208.42 177.95 208.42 160.45 208.4 160.45 208.4 153.37 215.34 153.37"/><rect class="cls-16" x="233.39" y="115.34" width="6.93" height="10.13"/><rect class="cls-16" x="233.39" y="130.55" width="6.93" height="17.74"/><path class="cls-7" d="M256.03,135.49l-4.09,12.03c-1.49,5.7-5.96,10.17-11.6,13.11v17.32h-.01v-24.58h3.7v-5.08h-3.7v-17.74h3.7v-5.08h-3.7v-10.13h-6.93v10.13h-3.7v5.08h3.7v17.74h-3.7v5.08h3.7v9.95c-.38,.09-.75,.19-1.13,.28-.35,.08-.7,.16-1.06,.23-.04,.01-.1,.01-.16,.03-.16,.04-.3,.07-.46,.09-.22,.04-.45,.08-.68,.12-.07,.01-.16,.03-.25,.04-.2,.03-.42,.07-.62,.09-.23,.03-.46,.07-.7,.09-.03,0-.06,0-.09,.01-.23,.03-.46,.04-.7,.07-.04,0-.1,.01-.16,.01-.23,.03-.46,.04-.7,.07h-.07c-.23,.01-.46,.03-.71,.04-.23,.01-.46,.03-.71,.03-.03,0-.07,.01-.1,.01h-.73c-3,.01-6.06-.43-9.02-1.27v14.67h-.01v-24.58h3.7v-5.08h-3.7v-17.74h3.7v-5.08h-3.7v-10.13h-6.93v10.13h-3.7v5.08h3.7v17.74h-3.7v5.08h3.7v7.08c-5.57-3.06-9.96-7.66-11.49-13.35l-4.22-11.61,11.52-20.26h39.98l11.83,20.26Z"/><g><g><polygon class="cls-7" points="246.62 183.36 246.62 183.56 202.98 183.56 224.79 194.62 246.62 183.56 246.62 210.34 202.2 210.34 202.2 183.36 246.62 183.36"/><g><path class="cls-22" d="M271.27,238.43l-21.3-2.55c-16.14-1.93-32.38-1.93-48.52,.02l-20.93,2.53-.58-3c-1.4-7.23-1.19-14.88,.58-21.95h0l32.91,3.12c8.18,.78,16.38,.78,24.56,0l33.28-3.13h0c1.89,7.93,1.93,16.5,.11,24.46l-.11,.48Z"/><rect class="cls-7" x="221.78" y="212.13" width="8.73" height="25.77"/></g><path class="cls-10" d="M256.03,135.49v74.24c0,4.58-3.99,8.3-8.92,8.3h-45.48c-4.93,0-8.93-3.72-8.93-8.3v-74.24l4.22,11.61c1.52,5.68,5.92,10.29,11.49,13.35v17.5h.1l3.36,5.41h-9.67v26.98h44.42v-26.98h-9.75l3.36-5.41h.1v-17.32c5.64-2.94,10.11-7.41,11.6-13.11l4.09-12.03Z"/><rect class="cls-9" x="208.4" y="160.45" width=".01" height="17.5"/><polygon class="cls-9" points="211.87 183.36 208.5 177.95 208.52 177.95 211.87 183.36"/><path class="cls-10" d="M236.86,183.36h-24.97l3.36-5.41h.1v-14.67c2.96,.84,6.02,1.28,9.02,1.27h.73s.07-.01,.1-.01c.25,0,.48-.01,.71-.03,.25-.01,.48-.03,.71-.04h.07c.23-.03,.46-.04,.7-.07,.06,0,.12-.01,.16-.01,.23-.03,.46-.04,.7-.07,.03-.01,.06-.01,.09-.01,.23-.03,.46-.07,.7-.09,.2-.03,.42-.07,.62-.09,.09-.01,.17-.03,.25-.04,.23-.04,.46-.08,.68-.12,.16-.03,.3-.05,.46-.09,.06-.01,.12-.01,.16-.03,.36-.07,.71-.15,1.06-.23,.38-.09,.75-.19,1.13-.28v14.63h.1l3.36,5.41Z"/><polygon class="cls-9" points="233.41 163.31 233.41 177.95 233.39 177.95 233.39 163.32 233.41 163.31"/><polygon class="cls-9" points="236.86 183.36 233.49 177.95 233.51 177.95 236.86 183.36"/></g><path class="cls-7" d="M246.62,183.56l-12.08,8.27c-5.88,4.03-13.62,4.02-19.5,0l-12.06-8.27h43.64Z"/><path class="cls-7" d="M269.18,192.99v17.35h-13.15v-26.98h2.8c5.71,0,10.35,4.31,10.35,9.63Z"/><path class="cls-7" d="M192.7,183.36v26.98h-13.15v-17.35c0-5.32,4.64-9.63,10.35-9.63h2.8Z"/></g><g><rect class="cls-16" x="208.4" y="130.55" width="6.93" height="17.74"/><g><rect class="cls-9" x="208.4" y="160.45" width=".01" height="17.5"/><polygon class="cls-9" points="211.87 183.36 208.5 177.95 208.52 177.95 211.87 183.36"/></g><rect class="cls-16" x="208.4" y="115.34" width="6.93" height="10.13"/><polygon class="cls-16" points="240.32 153.37 240.32 177.95 240.22 177.95 236.86 183.36 233.51 177.95 233.41 177.95 233.41 163.31 233.39 163.32 233.39 153.37 240.32 153.37"/><polygon class="cls-9" points="233.41 163.31 233.41 177.95 233.39 177.95 233.39 163.32 233.41 163.31"/><polygon class="cls-9" points="236.86 183.36 233.49 177.95 233.51 177.95 236.86 183.36"/><rect class="cls-13" x="204.71" y="125.47" width="14.33" height="5.08"/><rect class="cls-13" x="229.69" y="125.47" width="14.33" height="5.08"/><rect class="cls-13" x="204.71" y="148.29" width="14.33" height="5.08"/><rect class="cls-13" x="229.69" y="148.29" width="14.33" height="5.08"/></g></g></g></g><path class="cls-9" d="M224.35,251.54c6.68,5.39,16.76,6.84,24.88,3.58"/><path class="cls-9" d="M225.08,256.2c-3.7,9.5-9.45,18.32-16.8,25.77"/></g><path class="cls-16" d="M224.42,249.54l-.96,3.57c-1.37,5.09-2.39,9.08-4.68,13.84l-4.28,8.08,10.1-16.22-.18-9.27Z"/><path class="cls-16" d="M224.35,251.54l1.97,20.4,1.05-3.82c.7-4.73,4.01-8.44,7.68-11.5h0c-2.92-.63-5.7-1.8-8.19-3.45-.68-.45-1.51-.98-2.52-1.62Z"/><path class="cls-9" d="M187.27,237.45c.43,7.96,4.45,13.17,9.83,15.24"/><path class="cls-9" d="M259.83,237.21c-.29,7.97-3.01,13.17-6.65,15.24"/><path class="cls-9" d="M182.2,175.31c1.46,2.86,2.63,5.86,3.49,8.95"/><path class="cls-9" d="M179.04,169.99c.44,.64,.87,1.3,1.28,1.97"/><path class="cls-9" d="M169.56,187.11c-.19,4.63,.96,9.31,3.27,13.32"/><path class="cls-9" d="M258.7,141.14c1.27,4.28,2.54,8.55,3.81,12.83"/></g></g></svg>