<svg xmlns="http://www.w3.org/2000/svg" width="48" height="48" viewBox="0 0 48 48">
  <path id="chatbubble-ellipses" d="M71.213,37.34A24.364,24.364,0,0,0,55.98,32,24.083,24.083,0,0,0,38.8,39.081a23.179,23.179,0,0,0-2.98,29.147l.021.03c.03.044.061.088.092.131s.07.1.078.112l.024.043a.938.938,0,0,1,.132.739l-1.974,7.142a3.121,3.121,0,0,0-.129.818A2.752,2.752,0,0,0,36.8,80a3.154,3.154,0,0,0,1.12-.245l7.231-2.61.091-.035a1.58,1.58,0,0,1,.621-.123,1.62,1.62,0,0,1,.575.107c.174.068,1.75.671,3.412,1.136a28.221,28.221,0,0,0,6.511.964A23.562,23.562,0,0,0,80,55.517a22.875,22.875,0,0,0-.512-4.821A23.5,23.5,0,0,0,71.213,37.34ZM37.943,69.286Zm7.77-9.857A3.429,3.429,0,1,1,49.142,56,3.429,3.429,0,0,1,45.713,59.429Zm10.286,0A3.429,3.429,0,1,1,59.428,56,3.429,3.429,0,0,1,56,59.429Zm10.286,0A3.429,3.429,0,1,1,69.713,56,3.429,3.429,0,0,1,66.285,59.429Z" transform="translate(-31.999 -32)" fill="#f7ff00"/>
</svg>
