<svg xmlns="http://www.w3.org/2000/svg" width="24" height="24" viewBox="0 0 24 24">
  <path id="Closehover" d="M883,1243a12,12,0,1,0,12,12,12,12,0,0,0-12-12Zm0,22.364A10.364,10.364,0,1,1,893.364,1255,10.364,10.364,0,0,1,883,1265.364Zm4.385-14.771a.818.818,0,0,0-1.156.022l-3.1,3.229-3.377-3.251a.818.818,0,1,0-1.135,1.178l3.354,3.229-3.354,3.229a.818.818,0,0,0-.022,1.156.807.807,0,0,0,.59.251.818.818,0,0,0,.567-.229l3.377-3.251,3.1,3.229a.818.818,0,0,0,1.179-1.135L884.283,1255l3.125-3.251a.818.818,0,0,0-.023-1.157Z" transform="translate(-871 -1243)" fill="rgba(247,255,0,0.71)" fill-rule="evenodd"/>
</svg>
