<?xml version="1.0" encoding="UTF-8"?><svg id="Layer_1" xmlns="http://www.w3.org/2000/svg" viewBox="0 0 75.25 78.43"><defs><style>.cls-1{fill:#f7ff00;}</style></defs><g><path class="cls-1" d="M66.51,42.3c-2.8,0-7.02,.57-12.68,1.69-4.57,.9-8.44,1.86-11.63,2.89-1.04,.34-1.56,.83-1.56,1.48,0,.86,.42,1.3,1.27,1.3,.5,0,2.01-.35,4.53-1.06,4.17-1.18,6.79-1.76,7.86-1.76,.66,0,1,.29,1,.89,0,.42-.26,.91-.76,1.47-2.29,2.43-5.83,5.29-10.62,8.57-6.06,4.15-10.63,6.21-13.74,6.21-1.88,0-3.33-.71-4.37-2.13-.78-1.13-1.18-2.68-1.18-4.67,0-1.49,.17-3.02,.51-4.58-2.01,.83-4.02,1.53-5.99,2.08-.3,1.5-.44,2.96-.44,4.38,0,2.67,.59,4.83,1.81,6.52,1.42,1.98,3.51,2.98,6.25,2.98,3.59,0,8.23-1.77,13.95-5.3,4.11-2.55,7.85-5.32,11.22-8.32-2.92,5.94-5.65,12.07-8.2,18.4-2.55,.84-4.71,1.68-6.46,2.52-.7,.34-1.05,.82-1.05,1.43,0,.76,.37,1.13,1.13,1.13,.28,0,.68-.08,1.18-.24,4.06-1.55,6.56-2.47,7.48-2.77,3.17-.95,6.11-1.55,8.86-1.77,3.47-.3,5.31-.49,5.51-.55,.64-.16,.95-.56,.95-1.18,0-.76-.52-1.13-1.6-1.13-.98,0-2.11,.06-3.4,.16-2.24,.2-3.44,.29-3.61,.29-1.04,0-1.61-.36-1.72-1.08-.1-.76,.76-3.23,2.61-7.4,3.11-6.92,6.1-12.75,8.99-17.52,.58-.08,1.81-.2,3.66-.34,1.26-.08,1.89-.55,1.89-1.39s-.55-1.22-1.64-1.22Zm7.69-29.65c-1.06,0-3.12,2.41-6.17,7.22-1.96-.48-3.17-.22-5.3-.22-.79,0-1.61,.03-2.42,.12-.34,.87-.72,1.77-1.16,2.68,.78-.1,1.55-.15,2.29-.15,2.99,0,3.66,.34,3.66,1.99,0,.5-.5,1.91-1.48,4.2-.78,1.84-1.18,3.04-1.18,3.56,0,.76,.36,1.14,1.09,1.14,.59,0,1.06-.41,1.43-1.22,1.82-4.23,3.14-7.13,3.98-8.7,1.32-2.29,3.25-5.07,5.8-8.32,.34-.44,.5-.85,.5-1.21,0-.73-.35-1.09-1.05-1.09ZM34.51,30.79c-4.74,4.09-8.41,8.4-11.01,12.94-1.62,2.81-2.83,5.5-3.62,8.09,2.05-.66,4.15-1.57,6.3-2.69,.9-2.42,2.19-4.93,3.87-7.5,3.9-5.97,7.94-11.14,14.77-15.21,1.71-1,3.35-1.85,4.95-2.54,.16-.29,.31-.59,.47-.89,.45-.89,.86-1.75,1.22-2.59-.78,.22-1.56,.48-2.35,.77-5.88,2.18-9.87,5.49-14.6,9.6Z"/><path class="cls-1" d="M26.18,49.14c-.43,1.18-.78,2.33-1.04,3.46-2.01,.83-4.02,1.53-5.99,2.08,.17-.93,.42-1.89,.72-2.85,2.05-.66,4.15-1.57,6.3-2.69Z"/></g><g><path class="cls-1" d="M47.59,0c-3.69,0-7.59,.43-11.72,1.27-4.77,1.02-8.85,2.18-12.21,3.47-2.95,1.14-4.86,1.97-5.73,2.48-.63,.36-.94,.89-.94,1.57,0,.84,.51,1.13,1.53,.86,.49-.13,1.43-.49,2.84-1.08,1.75-.76,2.83-1.13,3.25-1.13,.45,0,.68,.27,.68,.82,0,.38-1.35,2.49-4.05,6.3-6.25,8.78-11.39,17.05-15.42,24.83C1.94,46.81,0,51.55,0,53.58s2.08,3.02,6.27,3.02,7.38-.64,11.79-1.92c.17-.93,.42-1.89,.72-2.85-3.07,1.02-4.92,1.54-7.74,1.54-1.39,0-2.33-.13-2.84-.36-.59-.3-.9-.8-.9-1.49,0-.51,.12-1.14,.36-1.89,1.96-5.72,6.06-13.66,12.3-23.84,4.48-7.3,9.48-14.42,15.01-21.36,.06-.06,.94-.29,2.66-.68,2.34-.51,4.58-.77,6.72-.77,2.97,0,5.33,.58,7.07,1.76,2.32,1.56,3.47,3.89,3.47,6.98,0,2.6-.7,5.54-2.11,8.86,2.29-.69,4.52-1.13,6.68-1.3,1.25-3.2,1.86-6.18,1.86-8.94,0-6.88-4.58-10.33-13.74-10.33Zm-5.31,36.59c-4.54,4.93-8.27,8.7-13.68,11.7-.4,.22-.79,.43-1.18,.64-.43,1.18-.78,2.33-1.04,3.46,.19-.07,.36-.14,.55-.22,5.92-2.5,9.99-5.52,14.7-9.44,5.26-4.36,9.54-9.05,12.85-14.07,1.54-2.33,2.81-4.57,3.82-6.71-2.25,.29-4.66,.99-7.21,2.1-2.38,4.55-5.32,8.73-8.82,12.54Z"/><path class="cls-1" d="M59.47,19.27c-.34,.87-.72,1.77-1.16,2.68-2.25,.29-4.66,.99-7.21,2.1,.16-.29,.31-.59,.47-.89,.45-.89,.86-1.75,1.22-2.59,2.29-.69,4.52-1.13,6.68-1.3Z"/></g></svg>