<?xml version="1.0" encoding="UTF-8"?><svg id="Layer_1" xmlns="http://www.w3.org/2000/svg" viewBox="0 0 502.14 469.25"><defs><style>.cls-1{fill:#f7ff00;}</style></defs><path class="cls-1" d="M251.07,409.02c-10.7,0-19.41,8.71-19.41,19.41,0,10.71,8.71,19.41,19.41,19.41,10.7,0,19.41-8.71,19.41-19.41,0-10.7-8.71-19.41-19.41-19.41h0Z"/><g><path class="cls-1" d="M335.89,0H166.25c-23.37,0-42.39,19.01-42.39,42.39V426.86c0,23.37,19.01,42.39,42.39,42.39h169.65c23.38,0,42.39-19.01,42.39-42.38V42.39c0-23.38-19.01-42.39-42.39-42.39h0Zm-102.71,23.01c0-2.17,1.76-3.93,3.93-3.93h27.92c2.17,0,3.93,1.76,3.93,3.93v.65c0,2.17-1.76,3.92-3.93,3.93h-27.92c-2.17,0-3.93-1.76-3.93-3.93v-.65Zm17.88,430.17c-13.64,0-24.73-11.1-24.73-24.74,0-13.64,11.1-24.73,24.73-24.73,13.64,0,24.73,11.1,24.73,24.73,0,13.64-11.09,24.74-24.73,24.74h0Zm118.19-75.19c0,5.13-4.17,9.3-9.3,9.3H142.17c-5.13,0-9.3-4.17-9.3-9.3V68.08c0-5.13,4.17-9.3,9.3-9.3h217.78c5.13,0,9.3,4.16,9.3,9.29V377.99Z"/><path class="cls-1" d="M49.19,330.76C8.95,249.65,23.37,151.52,86.41,85.26c2.1-2.21,2.11-5.66-.04-7.82l-10.9-10.9c-2.22-2.22-5.88-2.22-8.04,.06C-4.98,142.42-20.57,255.62,27.95,347.8c.64,1.21,.31,2.7-.78,3.51l-15.59,11.62c-1.73,1.29-1.41,3.97,.56,4.82l64.23,27.67c1.98,.85,4.14-.76,3.89-2.9l-8.15-69.46c-.25-2.14-2.73-3.21-4.46-1.92l-14.24,10.61c-1.4,1.04-3.44,.57-4.22-1h0Z"/><path class="cls-1" d="M474.97,117.93l15.59-11.62c1.73-1.29,1.41-3.97-.56-4.82l-64.23-27.67c-1.98-.85-4.14,.76-3.89,2.9l8.15,69.46c.25,2.14,2.73,3.21,4.46,1.92l14.24-10.61c1.41-1.05,3.45-.57,4.23,1,40.25,81.11,25.82,179.24-37.22,245.5-2.1,2.21-2.11,5.66,.04,7.82l10.9,10.9c2.22,2.22,5.88,2.22,8.04-.06,72.39-75.82,87.98-189.02,39.46-281.21-.64-1.21-.31-2.7,.78-3.51h0Z"/></g></svg>