<?xml version="1.0" encoding="UTF-8"?><svg id="Layer_1" xmlns="http://www.w3.org/2000/svg" xmlns:xlink="http://www.w3.org/1999/xlink" viewBox="0 0 494.69 45.75"><defs><style>.cls-1{fill:#87d19d;}.cls-2{fill:#f7ff00;}.cls-3{fill:url(#linear-gradient);}</style><linearGradient id="linear-gradient" x1="66.64" y1="22.29" x2="455.21" y2="22.29" gradientTransform="matrix(1, 0, 0, 1, 0, 0)" gradientUnits="userSpaceOnUse"><stop offset="0" stop-color="#87d19d"/><stop offset="1" stop-color="#f7ff00"/></linearGradient></defs><path class="cls-1" d="M13.83,45.75h0c1.89,0,3.64-.96,4.59-2.51l9.67-15.84c.67-1.1,1.91-1.78,3.25-1.79l7.36-.06c1.83-.02,3.64-.42,5.29-1.2l1.07-.5c.85-.4,.85-1.55,0-1.95l-1.07-.5c-1.64-.77-3.45-1.18-5.29-1.19l-7.36-.06c-1.34-.01-2.57-.69-3.25-1.79L18.42,2.51c-.95-1.55-2.7-2.51-4.59-2.51h0c3.94,6.89,6.19,15.5,7.01,19.09,.11,.49-.29,.95-.82,.95h0l-.4-1.47c-.19-.72-.94-1.17-1.71-1.04l-2.06,.35c-.28,.05-.53,.18-.72,.38h0c-.2,.21-.47,.35-.76,.39l-.74,.11,.83,.14c.26,.04,.5,.16,.68,.34l.31,.3,.51,.47h-1.56c-1-.02-2,.09-2.98,.32l-4.9,1.16-1.96-5.01c-.42-1.07-1.56-1.73-2.76-1.59l-1.81,.22,2.86,7.25-1.36,.32c-.22,.05-.22,.35,0,.41l1.36,.32L0,30.65l1.83,.22c1.19,.14,2.33-.51,2.76-1.57l2.01-5.01,4.84,1.14c.97,.23,1.97,.34,2.98,.33h1.56l-.51,.45-.31,.3c-.19,.18-.42,.29-.68,.34l-.83,.14,.74,.11c.29,.04,.56,.18,.76,.39h0c.19,.2,.44,.33,.72,.38l2.06,.35c.77,.13,1.51-.32,1.71-1.04l.4-1.47h0c.53,0,.93,.46,.82,.95-.82,3.59-3.07,12.2-7.01,19.09Z"/><path class="cls-1" d="M60.2,23.37h-3.8c-.63,0-1.14-.48-1.14-1.08s.51-1.08,1.14-1.08h3.8c.63,0,1.14,.48,1.14,1.08s-.51,1.08-1.14,1.08Z"/><path class="cls-3" d="M454.07,23.37h-7.57c-.63,0-1.14-.48-1.14-1.08s.51-1.08,1.14-1.08h7.57c.63,0,1.14,.48,1.14,1.08s-.51,1.08-1.14,1.08Zm-15.15,0h-7.57c-.63,0-1.14-.48-1.14-1.08s.51-1.08,1.14-1.08h7.57c.63,0,1.14,.48,1.14,1.08s-.51,1.08-1.14,1.08Zm-15.15,0h-7.57c-.63,0-1.14-.48-1.14-1.08s.51-1.08,1.14-1.08h7.57c.63,0,1.14,.48,1.14,1.08s-.51,1.08-1.14,1.08Zm-15.15,0h-7.57c-.63,0-1.14-.48-1.14-1.08s.51-1.08,1.14-1.08h7.57c.63,0,1.14,.48,1.14,1.08s-.51,1.08-1.14,1.08Zm-15.15,0h-7.57c-.63,0-1.14-.48-1.14-1.08s.51-1.08,1.14-1.08h7.57c.63,0,1.14,.48,1.14,1.08s-.51,1.08-1.14,1.08Zm-15.15,0h-7.57c-.63,0-1.14-.48-1.14-1.08s.51-1.08,1.14-1.08h7.57c.63,0,1.14,.48,1.14,1.08s-.51,1.08-1.14,1.08Zm-15.15,0h-7.57c-.63,0-1.14-.48-1.14-1.08s.51-1.08,1.14-1.08h7.57c.63,0,1.14,.48,1.14,1.08s-.51,1.08-1.14,1.08Zm-15.15,0h-7.57c-.63,0-1.14-.48-1.14-1.08s.51-1.08,1.14-1.08h7.57c.63,0,1.14,.48,1.14,1.08s-.51,1.08-1.14,1.08Zm-15.15,0h-7.57c-.63,0-1.14-.48-1.14-1.08s.51-1.08,1.14-1.08h7.57c.63,0,1.14,.48,1.14,1.08s-.51,1.08-1.14,1.08Zm-15.15,0h-7.57c-.63,0-1.14-.48-1.14-1.08s.51-1.08,1.14-1.08h7.57c.63,0,1.14,.48,1.14,1.08s-.51,1.08-1.14,1.08Zm-15.15,0h-7.57c-.63,0-1.14-.48-1.14-1.08s.51-1.08,1.14-1.08h7.57c.63,0,1.14,.48,1.14,1.08s-.51,1.08-1.14,1.08Zm-15.15,0h-7.57c-.63,0-1.14-.48-1.14-1.08s.51-1.08,1.14-1.08h7.57c.63,0,1.14,.48,1.14,1.08s-.51,1.08-1.14,1.08Zm-15.15,0h-7.57c-.63,0-1.14-.48-1.14-1.08s.51-1.08,1.14-1.08h7.57c.63,0,1.14,.48,1.14,1.08s-.51,1.08-1.14,1.08Zm-15.15,0h-7.57c-.63,0-1.14-.48-1.14-1.08s.51-1.08,1.14-1.08h7.57c.63,0,1.14,.48,1.14,1.08s-.51,1.08-1.14,1.08Zm-15.15,0h-7.57c-.63,0-1.14-.48-1.14-1.08s.51-1.08,1.14-1.08h7.57c.63,0,1.14,.48,1.14,1.08s-.51,1.08-1.14,1.08Zm-15.15,0h-7.57c-.63,0-1.14-.48-1.14-1.08s.51-1.08,1.14-1.08h7.57c.63,0,1.14,.48,1.14,1.08s-.51,1.08-1.14,1.08Zm-15.15,0h-7.57c-.63,0-1.14-.48-1.14-1.08s.51-1.08,1.14-1.08h7.57c.63,0,1.14,.48,1.14,1.08s-.51,1.08-1.14,1.08Zm-15.15,0h-7.57c-.63,0-1.14-.48-1.14-1.08s.51-1.08,1.14-1.08h7.57c.63,0,1.14,.48,1.14,1.08s-.51,1.08-1.14,1.08Zm-15.15,0h-7.57c-.63,0-1.14-.48-1.14-1.08s.51-1.08,1.14-1.08h7.57c.63,0,1.14,.48,1.14,1.08s-.51,1.08-1.14,1.08Zm-15.15,0h-7.57c-.63,0-1.14-.48-1.14-1.08s.51-1.08,1.14-1.08h7.57c.63,0,1.14,.48,1.14,1.08s-.51,1.08-1.14,1.08Zm-15.15,0h-7.57c-.63,0-1.14-.48-1.14-1.08s.51-1.08,1.14-1.08h7.57c.63,0,1.14,.48,1.14,1.08s-.51,1.08-1.14,1.08Zm-15.15,0h-7.57c-.63,0-1.14-.48-1.14-1.08s.51-1.08,1.14-1.08h7.57c.63,0,1.14,.48,1.14,1.08s-.51,1.08-1.14,1.08Zm-15.15,0h-7.57c-.63,0-1.14-.48-1.14-1.08s.51-1.08,1.14-1.08h7.57c.63,0,1.14,.48,1.14,1.08s-.51,1.08-1.14,1.08Zm-15.15,0h-7.57c-.63,0-1.14-.48-1.14-1.08s.51-1.08,1.14-1.08h7.57c.63,0,1.14,.48,1.14,1.08s-.51,1.08-1.14,1.08Zm-15.15,0h-7.57c-.63,0-1.14-.48-1.14-1.08s.51-1.08,1.14-1.08h7.57c.63,0,1.14,.48,1.14,1.08s-.51,1.08-1.14,1.08Zm-15.15,0h-7.57c-.63,0-1.14-.48-1.14-1.08s.51-1.08,1.14-1.08h7.57c.63,0,1.14,.48,1.14,1.08s-.51,1.08-1.14,1.08Z"/><path class="cls-2" d="M465.45,23.37h-3.8c-.63,0-1.14-.48-1.14-1.08s.51-1.08,1.14-1.08h3.8c.63,0,1.14,.48,1.14,1.08s-.51,1.08-1.14,1.08Z"/><path class="cls-2" d="M455.17,9.04c-.85-.3-1.28-.35-1.28-.35,0,0-.16,.7-.7,.35-.54-.35-.66-.57-1.16-.65s-.85,.22-1.12,.3c-.27,.09-1.09,.3-1.05,.96,.04,.65-.74,1.05,0,1.13,.74,.09,.66-.61,1.2,0,.54,.61,.74,.87,.74,1.31s-.16,.61,.19,.83c.35,.22,.5,.17,.89,.22,.39,.04,.5-.61,.74,0,.23,.61-.31,.65,.5,.74,.81,.09,.93-.57,1.43,0,.5,.57,.47,.83,.62,1.18,.16,.35,.43,.3,.78,.57,.35,.26,.39-.04,.5,.48,.12,.52-.31,.39,.23,.78,.54,.39,1.78,.48,1.9,1,.12,.52-.12,.04,.23,1.31,.35,1.26,.54,1.44,.74,2,.19,.57,.23,.57,.27,1.48,.04,.91,.54,1.31,.58,2.09s.5,1.44,0,2.09c-.5,.65-.58,.52-.93,1.26-.35,.74-.81,.57-.54,1.05s.89,.83,1.16,1c.27,.17,.27,.78,.89,.22,.62-.57,.62-.61,.81-.61s.43,.09,.93,.22,.47,.13,.93,.13,.58,.13,1.16-.04c.58-.17,.66-.35,1.12-.74,.47-.39,.35-.48,.89-.44,.54,.04,.89,.26,.89,.26,0,0,.97,1.17,1.05,1.45,.08,.29,.08,.59,.78,1.16,.7,.57,.89,.65,.93,.78,.04,.13-1.01,.3,0,.52,1.01,.22,1.67,.13,1.98,.09,.31-.04,.39-.09,.89,.04,.5,.13,.93,.17,1.43,.17s1.16,.04,1.59-.13c.43-.17,.35-.22,1.16-.35,.81-.13,.58-.13,1.32-.13s.85,.04,1.32,0c.47-.04,.7-.09,1.05-.22s.54-.26,.78-.44,.66-.78,.97-.96c.31-.17,1.12-.96,1.12-.96,0,0,.39-.3,.93-.13s.78,.22,1.09,.39c.31,.17,1.28,.17,1.28,.65s-.12,.61,0,.74c.12,.13,.43,.57,.97,.7s1.4,.13,1.4,.13c0,0,.85-1.05,1.24-.48s.78,1.31,.93,1.44,.89,.7,1.12,.26c.23-.44,.33-.52,.5-1.26,.17-.74,.19-.87,0-1.31-.19-.44-.39-.78-1.01-.96-.62-.17-.7,0-1.05-.44s-.43-.57-.74-.96c-.31-.39-.66-.65-.58-1.05,.08-.39,0-.78,.39-.87,.39-.09,.5,.26,.89-.39,.39-.65,.97-.78,.54-1.26-.43-.48-.54-1.05-1.09-.87-.54,.17-.16,.17-1.01,.17s-1.36-.17-1.36-.17c0,0-.47-.17-.93-.74-.47-.57-.62-.48-1.01-1.22s-.66-.59-.23-1.36c.43-.77,1.82-1.16,.74-1.73-1.09-.57-2.05-.61-2.4-.44-.35,.17-.5,.83-.97,.3-.47-.52-.66-1.13-.81-1.31s-.66-.74-1.32-.61-.35,.57-1.12,.13-1.2-1.09-1.71-.61c-.5,.48-.31,.39-.89,.7-.58,.3-.08-.09-.97,.3-.89,.39-.47,.35-1.16,.65s-1.01,.61-1.51,.17,.5-1.35-.16-1.79-1.98-.83-2.13-.87-.89,.22-1.71-.26c-.81-.48-1.12-.91-1.28-1.18s-.39-.48-.16-.87c.23-.39,.47-.87-.16-.91-.62-.04-.58-.04-.93-.04s-.19-.09-1.05-.13c-.85-.04-1.36,0-1.71-.35-.35-.35,.04-.65-.7-.52-.74,.13-.74-.04-1.16,.35s-.19,.65-.85,.61c-.66-.04-.85-.3-1.32-.35-.47-.04-2.4-.17-2.4-.17,0,0-.16-.96-.85-1.22-.7-.26-.31-.3-1.32-.26-1.01,.04-1.24-.17-1.78-.7-.54-.52-.43-1.09-.43-1.09Z"/></svg>